<svg width="221" height="145" viewBox="0 0 221 145" fill="none" xmlns="http://www.w3.org/2000/svg"><path d="M.05 13.89c.28-3.17 1.78-6.07 4.4-8.44C8.75 1.55 15.63-.54 22 .12c12.36 1.29 23.62 9.46 28.68 20.81 2.65 5.94 3.64 12.55 4.6 18.95 1.33 8.88 2.59 17.27 7.93 23.78 9.63 11.72 28.98 10.94 42.12 3.41 4.48-2.57 8.69-5.83 12.75-8.98 4.94-3.83 10.05-7.79 15.79-10.63 14.22-7.06 31.99-6.41 45.26 1.65 10.54 6.4 18.05 17.46 20.48 29.36 7.77 1.94 14.59 6.58 20.45 10.86 8.62 6.29 17.38 13.43 23.12 22.99 6.31 10.51 7.5 22.81 3.11 32.08l-2.31-1.09c4.03-8.51 2.88-19.89-2.99-29.68-5.5-9.18-14.03-16.11-22.43-22.24-5.38-3.92-11.57-8.16-18.47-10.15.34 2.53.46 5.09.32 7.63-.35 6.55-3.37 13.17-7.66 16.84-2.82 2.41-6.11 3.5-9.51 3.16-3.93-.4-7.36-2.91-9.42-6.88-2.41-4.65-2.44-10.38-.07-14.58 4.69-8.32 15.24-10.74 23.15-9.49-2.5-10.81-9.45-20.77-19.07-26.61-12.54-7.62-29.35-8.22-42.8-1.55-5.51 2.73-10.52 6.61-15.36 10.36-4.13 3.2-8.41 6.51-13.05 9.17-7.2 4.13-15.93 6.28-23.95 5.9-9.04-.43-16.44-3.85-21.4-9.89-5.79-7.05-7.16-16.18-8.48-25.02-.93-6.23-1.9-12.66-4.4-18.28C43.64 11.44 33.2 3.86 21.73 2.66c-5.59-.58-11.85 1.3-15.57 4.68-2.38 2.16-3.63 4.82-3.61 7.7L0 15.06c0-.39.01-.78.05-1.17zm197.34 66.69c-.25-.05-.49-.09-.74-.13-7.08-1.18-16.58.87-20.71 8.19-1.96 3.47-1.91 8.24.11 12.15 1.66 3.2 4.36 5.21 7.41 5.52 2.73.28 5.29-.58 7.6-2.56 3.79-3.23 6.43-9.14 6.77-15.04.15-2.71 0-5.43-.44-8.13z" fill="#fff"/></svg>