<svg width="123" height="124" viewBox="0 0 123 124" fill="none" xmlns="http://www.w3.org/2000/svg"><path d="M119.72 111.72c-.61 1.79-1.13 3.56-1.81 5.27-.62 1.57-1.37 3.09-2.1 4.61-.53 1.1-1.38 1.61-2.63 1.33-1.05-.24-2.12-.41-3.15-.71-5.23-1.56-10.45-3.16-15.69-4.71-1.55-.46-3.14-.76-4.7-1.16-2.83-.72-5.66-1.45-8.48-2.2-2.45-.65-4.89-1.37-7.34-2.02-4.99-1.33-9.78-3.22-14.66-4.87-4.89-1.65-9.56-3.82-14.37-5.64-1.79-.68-3.66-1.16-5.51-1.67-2.52-.7-5.06-1.34-7.59-2-.22-.06-.44-.14-.67-.18-5-1.03-9.65-3.1-14.4-4.86-1.37-.51-2.78-.9-4.18-1.31-2.36-.7-4.76-1.27-7.07-2.09-1.21-.42-2.33-1.17-3.38-1.93-.78-.56-1.04-1.53-.99-2.49.08-1.61.13-3.23.38-4.82.32-2.05.82-4.07 1.25-6.1.2-.93.17-1.73-.44-2.6-1.68-2.4-1.58-4.89.54-6.85 1.43-1.32 2.01-2.73 2.16-4.58.19-2.29.77-4.56.91-6.85.16-2.66 1.64-4.44 3.57-5.91 1.27-.97 2.71-1.77 4.16-2.45 4.07-1.92 8.37-2.96 12.88-3.28 5.37-.39 10.75-.57 16.13-.71 2.46-.07 4.91-.21 7.37-.33 1.92-.09 3.83-.18 5.75-.29.38-.02.75-.12 1.23-.2.15-.33.35-.65.44-1.01.58-2.23 1.1-4.48 1.72-6.71.47-1.7 1.05-3.37 1.62-5.04.17-.5.51-.95.76-1.42.44-.81 1.1-1.21 2.04-1.28.74-.05 1.56.19 2.29-.49-.02-1.09-.36-2.2-.68-3.28-.75-2.55-.39-5.03.41-7.48.16-.5.42-1 .72-1.44 1.37-1.95 2.79-3.87 4.14-5.83.87-1.26 1.65-2.59 2.52-3.86.37-.53.58-1.31 1.61-1.29.05.42.21.88.13 1.28-.57 2.67-.32 5.36-.23 8.04.09 2.62-.11 5.22-.49 7.82-.36 2.5-1.53 4.47-3.33 6.15-.33.31-.64.64-.94.97-.04.04-.02.14-.03.22 2.42 1.36 3.08 1.34 2.41 5.13-.35 1.97-.79 3.92-1.15 5.89-.2 1.12-.55 2.24-.46 3.55.47.16.95.38 1.45.48 2.34.44 4.69.83 7.03 1.27.6.11 1.21.27 1.76.52.4.18.84.49 1.03.85.75 1.43 1.43 2.91 1.29 4.6-.05.69.06 1.43-.15 2.06-.59 1.79.25 3.18 1.25 4.42 2.99 3.7 6.07 7.34 9.13 10.99 1.53 1.82 3.09 3.63 4.67 5.41 2.8 3.16 5.64 6.3 8.45 9.46.41.46.81.93 1.17 1.43 2.55 3.59 5.53 6.79 8.65 9.87 1.37 1.35 2.69 2.73 3.71 4.39.68 1.1 1.59 2.06 2.37 3.11.6.8.69 1.64.24 2.59-.52 1.11-.9 2.28-1.39 3.52.31.55.67 1.13.98 1.74.99 1.96.45 3.52-1.55 4.53-.24.14-.5.3-.76.44zM5.49 74.46c-.32.67-.61 1.06-.7 1.49-.48 2.41-.93 4.83-1.33 7.26-.08.51.05 1.07.13 1.6.2 1.24.86 2.04 2.08 2.5 5.62 2.1 11.28 4.08 17.02 5.81 1.03.31 2.06.63 3.07 1.01 5.97 2.29 12.1 4.04 18.26 5.74 2.37.65 4.71 1.43 7.02 2.26 2.31.83 4.54 1.9 6.87 2.7 4.88 1.66 9.81 3.15 14.69 4.82 6.63 2.26 13.35 4.21 20.1 6.05 2 .55 3.99 1.14 5.98 1.74 3.31 1 6.61 2.03 9.93 3.02 1.25.37 2.54.61 3.8.97 1.22.35 1.78.31 2.21-1.18.32-1.1.72-2.19 1.02-3.3.39-1.47.8-2.94.9-4.53-.44-.19-.78-.36-1.12-.49-1.3-.49-2.64-.88-3.89-1.46-3.08-1.43-6.36-2.29-9.59-3.29-3.38-1.05-6.78-1.99-10.16-3.05-1.69-.53-3.32-1.23-4.99-1.81-3.34-1.15-6.73-2.17-10.03-3.43-6.6-2.53-13.35-4.68-19.84-7.52-.98-.43-2.01-.77-3.04-1.1-3.96-1.25-7.92-2.48-11.89-3.72-4.62-1.45-9.27-2.83-13.87-4.36-5.91-1.97-11.78-4.06-17.67-6.08-1.56-.55-3.16-1.06-4.96-1.65zm48.72-21.37c-1.07-.03-1.83-.06-2.59-.06-.92.01-1.84.03-2.76.08-1.45.07-2.92.1-4.36.26-2.6.29-5.18.68-7.77.99-3.74.44-7.48.84-11.22 1.28-.9.11-1.83.19-2.63.85.4.68 1.07.93 1.68 1.21 2.09.98 4.19 1.92 6.29 2.88 2.65 1.22 5.29 2.47 7.95 3.67 2.94 1.32 5.89 2.63 8.87 3.88 3.41 1.42 6.9 2.64 10.26 4.16 4.55 2.05 9.3 3.63 13.77 5.9.82.42 1.71.69 2.57 1.02 1.58.61 3.17 1.18 4.73 1.84 6.58 2.79 13.1 5.7 19.72 8.39 5.2 2.11 10.52 3.9 15.62 6.25.63.29 1.29.68 2.4.68-1.3-1.53-2.39-2.8-3.46-4.09-5.35-6.45-10.61-12.97-16.31-19.13-4.22-4.57-8.24-9.34-12.4-13.96-1.8-2-3.75-3.86-5.61-5.79-.46-.48-.99-.68-1.65-.67-2.92.05-5.84.07-8.76.15-.51.01-1.02.22-1.62.36-.55 2.07-1.1 4.07-1.62 6.07-.33 1.26-.59 2.55-.93 3.81-.17.61-.53 1.12-1.2 1.29-2.86.74-5.62.7-8.19-1.01-.98-.65-1.54-1.5-1.46-2.68.12-1.76.27-3.52.42-5.28.05-.69.14-1.36.26-2.35zm66.04 47.65c-.89-.4-1.64-.76-2.41-1.07-1.64-.67-3.31-1.26-4.93-1.97-5.35-2.33-10.67-4.74-16.04-7.04-6.22-2.66-12.48-5.2-18.7-7.87-4.17-1.78-8.32-3.62-12.42-5.55-4.53-2.13-9.24-3.79-13.9-5.59-3.22-1.25-6.53-2.36-9.6-3.93-4.47-2.29-9.18-3.93-13.81-5.79-2.78-1.11-5.55-2.27-8.34-3.35-.82-.32-1.28-.82-1.39-1.65-.13-.91-.22-1.83-.33-2.75-.28-2.24-1.91-3.4-3.61-4.5-.18-.12-.44-.14-.67-.16-1.58-.12-3.08.19-4.4 1.06-.78.51-1.4 1.19-1.61 2.17-.12.6-.36 1.18-.45 1.79-.33 2.13-.63 4.26-.89 6.4-.06.5.07 1.03.12 1.52 1.16.54 2.23.97 3.23 1.52 3.71 2.04 7.5 3.91 11.51 5.26 3.64 1.22 7.34 2.27 11.01 3.42 2.27.71 4.51 1.53 6.8 2.2 3.03.88 5.98 1.94 8.78 3.42 1.29.68 2.63 1.28 3.97 1.84 5.24 2.2 10.49 4.4 15.75 6.54 3.63 1.48 7.28 2.91 10.95 4.28 2.3.86 4.66 1.57 7 2.32 5.78 1.85 11.57 3.66 17.33 5.6 4.8 1.62 9.68 3.03 14.52 4.52.29.09.59.12.83.16 1.2-1.16 1.2-1.16 1.7-2.8zM7.79 65.19c-.8.03-1.41.03-2.03.08-.84.06-1.44.49-1.79 1.26-.16.35-.29.71-.43 1.07-.43 1.05-.24 2 .63 2.7 1.62 1.3 3.35 2.42 5.38 3.03 1.69.5 3.34 1.15 4.98 1.78 2.01.77 3.98 1.66 6.01 2.36 2.68.93 5.42 1.71 8.12 2.6 3.44 1.12 6.85 2.3 10.3 3.41 4.1 1.32 8.23 2.55 12.32 3.89 1.53.5 2.97 1.25 4.47 1.85 4 1.58 8.01 3.15 12.02 4.71.86.33 1.73.64 2.6.94 3.85 1.32 7.78 2.45 11.55 3.99 6.64 2.72 13.58 4.5 20.34 6.84 4.65 1.61 9.39 2.94 14.08 4.45 1.4.45 2.57.04 3.71-.66.55-.34.64-1 .38-1.63-.37-.91-1.02-1.52-1.94-1.85-2.02-.74-4.02-1.54-6.07-2.19-3-.97-6.05-1.76-9.04-2.75-5.47-1.82-10.86-3.87-16.39-5.51-3.16-.94-6.21-2.25-9.34-3.33-4.44-1.54-8.79-3.24-13.05-5.24-3.26-1.53-6.69-2.72-10.05-4.06-1.85-.74-3.7-1.51-5.56-2.24-2.72-1.07-5.43-2.14-8.17-3.17-2.3-.86-4.66-1.59-6.94-2.51-3.72-1.5-7.53-2.72-11.42-3.65-3.62-.87-6.97-2.34-10.23-4.1-1.45-.84-3.04-1.44-4.44-2.07zm13.67-11.15c.42-.09.79-.2 1.16-.26 2.35-.39 4.7-1.02 7.06-1.1 5.61-.18 11.21-.61 16.81-1.01 2.37-.17 4.72-.67 7.08-1.01.97-.14 1.47-.66 1.66-1.63.34-1.74.77-3.46 1.13-5.19.06-.27-.04-.57-.07-.98-2.24.01-4.38.01-6.52.05-3.15.05-6.31.05-9.45.23-3.07.18-6.12.6-9.18.88-3.98.37-7.97.76-11.88 1.64-1.57.35-3.09.91-4.62 1.4-.26.08-.6.14-.54.58.21.04.43.1.65.12 1.95.16 3.42 1.23 4.88 2.4 1.14.92 1.28 2.22 1.55 3.49-.02.1.06.15.28.39zm41.15 8.21c1.02-1.51 1.16-3.22 1.55-4.85.96-4.03 1.79-8.09 2.93-12.07 1.21-4.22 1.99-8.51 2.81-12.81.15-.81.3-1.64-.06-2.47-1.36-.18-2.67-.23-3.91-.56-1.25-.33-2.44-.89-3.79-.87-.15.2-.35.36-.41.57-.23.73-.47 1.46-.63 2.21-.49 2.33-.92 4.67-1.4 7-1.33 6.46-2.68 12.92-4 19.39-.11.52-.15 1.06-.21 1.6-.06.5.12.9.52 1.21 1.89 1.47 3.96 2.26 6.6 1.65zM68 50.1c3.65.68 10.36.81 12.4.26.25-1.63.21-2.77-.41-3.77-.43-.69-.99-1.49-1.68-1.81-2.66-1.22-5.49-1.81-8.36-1.88-1.03 1.67-1.95 5.09-1.95 7.2zm.99-26.62c.87-.34 1.59-.84 1.96-1.73.42-.98.89-1.96 1.13-3 .43-1.86.92-3.74.72-5.69-.16-1.52-.3-3.05-.49-4.57-.04-.33-.01-.8-.72-.86-1.55 1.98-3.17 4.01-4.75 6.07-.83 1.08-1.01 2.4-1.08 3.7-.03.6.03 1.25.2 1.82.29.95.7 1.86 1.08 2.78.04.09.25.1.46.18.29-1.51.56-3 .86-4.49.19-.94.53-1.33 1.04-1.31.58.02.85.78.57 1.71-.34 1.18-.72 2.35-1.06 3.52-.16.59-.38 1.19.08 1.87zm-5.75 3.4c.57.9 1.32 1.06 2.08 1.18l3.4.54c.6.09 1.24.28 1.65-.37.28-.45-.24-1.01-1.17-1.41-.75-.32-1.33-.25-1.77.49a.82.82 0 01-.32.32c-.12.06-.28.03-.5.04l-.31-1.52c-1.1-.09-2.16-.4-3.06.73z" fill="#fff"/></svg>