<svg width="298" height="413" viewBox="0 0 298 413" fill="none" xmlns="http://www.w3.org/2000/svg"><path d="M173.241 22.631c-2.13-3.33-5.99-4.82-8.54-7.73-3.31-3.78-2.83-8.64-2.23-13.25a.858.858 0 00-.25-.74c.42-.53-.4-1.21-.89-.77-6.27 5.72-11.06 14.94-10.7 23.6.32 7.64 7.37 13.93 15.04 13.36 7.04-.5 11.54-8.29 7.57-14.47zm-4.65 11.43c-3.1 1.55-7.02.81-9.89-.91-4.03-2.42-6.07-6.49-5.82-11.14.35-6.52 3.32-12.75 7.09-18.09-.71 4.91.35 10.11 4.1 13.57 2.34 2.15 5.44 3.62 7.21 6.32 2.26 3.45 1.04 8.38-2.69 10.25zm60.52 34.91c.26-.29.15-.88-.33-.87-6.44.09-13.4 3.19-17.39 8.34-3.46 4.45-4.25 11.85.82 15.5 4.53 3.26 10.15 1.28 12.06-3.82 2.08-5.58-.84-13.99 4.67-17.92.48-.35.44-.86.17-1.23zm-5.84 9.95c-.21 4.3.06 12.62-6.23 12.52-7.42-.12-7.31-9.43-3.89-13.82 3.16-4.06 8.22-6.49 13.18-7.88-2.29 2.39-2.89 5.88-3.06 9.18zm-111.16-16.15c-4.35-5.29-11.71-8.3-18.51-7.09-.24.04-.4.2-.48.39-.7.48-.83 1.73.21 2.02 4.5 1.28 3.83 8.93 3.94 12.48.1 3.18.52 6.56 2.33 9.26 3.38 5.02 10.19 4.56 13.96.24 4.42-5.04 2.41-12.6-1.45-17.3zm-3.57 18.06c-7.67 2.74-8.89-7.02-9-12.18-.08-3.55-.27-8.9-3.2-11.49 5.45.48 10.56 2.66 14.15 7.07 3.95 4.87 5.35 14-1.95 16.6zm188.6 273.11c-2.82-11.57-13.29-19.4-23.94-23.39-.02-.01-.05-.01-.07-.02a67.66 67.66 0 00-7.53-3.66c-3.75-1.55-7.6-2.86-11.44-4.17-.32-.11-.6-.08-.84.04-.2-7.88-7.61-14.2-15.45-15.79-.51-.1-.92.12-1.17.46.31-3.73.63-7.46.98-11.19.51-5.28 1.31-10.6 1.74-15.92 0-.04.01-.08.01-.11.12-1.53.21-3.06.25-4.59 1.08-.42 2.02-1.28 2.57-2.41 1.25-2.59-.11-5.25-1.67-7.44 6.34-2.5 9.84-10.89 6.03-16.93-1.35-2.13-3.33-3.57-5.56-4.33.72-2.69.63-5.71.84-8.47.25-3.19.49-6.37.74-9.56.49-6.27.71-12.59 2.06-18.75.02-.11.03-.21.02-.3 4.27.57 8.68-.52 12.27-3.83 3.13-2.9 4.76-7.07 4.09-11.31-.49-3.12-2.3-6.53-5.06-8.32 2.85-.75 5.13-3.39 4.77-6.54-.31-2.74-2.36-4.69-4.83-5.34 3.63-3.7 5.93-9.28 3.49-14.21-1.8-3.63-5.87-5.97-9.77-5.42 2.14-5.07.45-11.42-3.92-14.9-5.41-4.3-13.25-3.18-18.43.89-1.77-6.44-8.82-10.75-15.4-9.18.44-3.26.87-6.54 1.22-9.81.1-.11.12-.28.04-.42.32-3.02.56-6.05.67-9.08.01-.32-.2-.55-.46-.67.22-2.37-3.99-3.21-5.76-3.52-.84-.15-1.69-.23-2.54-.25.49-2.59 1.53-4.84 3.05-7.36.52-.87-.65-2.03-1.41-1.22-2.11 2.27-3.26 5.45-3.49 8.61-2.33.17-4.61.79-6.73 1.82-.37-.17-.9 0-.96.54-.86 6.74-1.24 13.53-1.49 20.33-4.11-2.51-8.95-.13-10.45 4.03-1.36-2.05-3.37-3.68-5.96-3.45-1.94.17-3.61 1.36-4.33 3.01-.98-.92-2.18-1.59-3.51-1.77.7-5.21 1.39-10.42 2.09-15.63 2.17-16.23 5.04-32.56 6.13-48.9.02-.35-.2-.61-.49-.73-.44-1.97-2.71-2.75-4.41-3.22-2.59-.71-5.25-1.2-7.92-1.51.4-2.34.94-4.66 1.05-7.06.14-3.17.25-7.34-1.18-10.24-.4-.82-1.66-.52-1.72.37-.11 1.68.32 3.32.46 5 .16 1.91.17 3.82.05 5.73-.12 1.85-.36 3.71-.75 5.53-.03.15-.07.3-.1.45-3.87-.36-9.38-.73-11.05 3.48-.13.34-.07.65.1.91-.09.11-.15.26-.18.43-2.76 19.22-3.48 38.87-4.13 58.25-.07 2.13-.13 4.26-.19 6.39-3.02-3.4-8.54-1.88-10.07 2.23-2.71-2.92-7.24-3.89-10.9-2.07l.06-1.01c.24-4.82.43-9.65.56-14.48.06-2.42.1-4.83.1-7.25 0-1.84.46-3.91-.81-5.37-.07-.08-.22-.1-.29-.02-.04.04-.07.08-.11.13-1.05-2.11-4.77-3.09-6.66-3.46-.89-.17-1.83-.29-2.8-.34.2-3.83-.28-7.95-2.04-11.02-.51-.89-1.87-.42-1.69.61.4 2.33 1.27 4.52 1.56 6.89.15 1.18.2 2.35.2 3.52-2.67.13-5.36.81-7.41 2.28a.72.72 0 00-.3.66c-.09.06-.16.14-.22.24-.19.1-.33.3-.35.61-.45 8.53-.3 17.09-.23 25.63-2.56-2.57-6.68-3.48-10.09-2.17-3.66 1.4-5.99 5.02-6.25 8.83-4.01-1.08-8.62-.81-11.59 2.4-2.11 2.28-2.82 5.46-1.83 8.25-7.09-.39-14.67.79-19.48 6.51-3.44 4.09-4.74 11.78-.46 15.74-2.85 2.08-5.14 5.56-4.52 9.12.5 2.85 2.91 5.34 5.71 5.54-1.98 3.99-3.55 8.55-1.14 12.69 1.39 2.39 3.53 3.34 5.87 3.5-.45 6.43-.2 12.97-.08 19.41.06 3.24.14 6.47.23 9.7.08 2.87-.21 6.2.4 9.06-3.9-1.16-8.29.07-10.26 4.4-2.17 4.76 1.71 10.65 6.69 10.01-5.92 1.12-8.59 9.83-5.2 14.65 2.07 2.94 5.47 4.08 8.81 3.78-.3 6.04-.18 12.12-.16 18.17.01 4.09-.06 8.2-.04 12.3-2.78-2.19-7.11-2.27-9.53.71-.52.64-.88 1.34-1.11 2.07-7.74-.01-15.53 1.1-23.01 3.06-6.34 1.66-12.59 4.12-17.85 8.11-8.78 6.66-12.32 16.92-11.02 27.27-.03 9.52 4.06 18.6 10.27 25.96 8.05 9.57 19.43 15.63 30.87 20.21 26.38 10.55 54.67 17.28 82.74 21.4 27.45 4.03 55.59 5.62 83.25 2.97 13.3-1.28 26.53-3.62 39.34-7.44 12.12-3.61 24.69-8.23 34.99-15.73 10.32-7.54 18.65-20.34 15.42-33.61zm-93.92-246.43c.03.51.08 1.02.16 1.52.12.78 1.39.68 1.39-.11 0-.51.03-1 .06-1.47 1.4.05 7.96.92 5.04 2.85-3.5 2.31-8.64.73-12.01-1.36 1.72-.77 3.5-1.26 5.36-1.43zm8.9 3.89c-.43 2.13-.79 4.28-1.11 6.43-.93-.58-1.81-1.29-2.51-2.03-.57-.6-1.06-1.28-1.45-2.01-.13-.24-.23-.49-.33-.73 1.83-.12 4.02-.56 5.4-1.66zm-7.23 1.66c.34 1.54 1.75 3.18 2.75 4.11.99.93 2.02 1.53 3.17 1.91-.34 2.31-.63 4.63-.92 6.95-2.39-1.34-4.76-2.69-7.05-4.21-1.11-.74-2.23-1.46-3.23-2.36-1.31-1.18-1.74-2.41-2.45-3.96a.568.568 0 00-.41-.31c.05-1.8.09-3.6.11-5.4 2.18 1.99 5.11 3.1 8.03 3.27zm-8.87 40.83c1.89 3.43 5.63 6.1 9.33 6.96-.6.34-.99.88-1.58 1.23-.8.48-1.85.59-2.77.62-.83.02-4.74-.1-5.13-1.34.02-.08.04-.17.04-.27.07-2.41.1-4.8.11-7.2zm3.97 2.18c-1.93-1.96-2.75-4.17-3.91-6.57-.01-.03-.04-.04-.05-.07v-3.93c.25-.4.25-.93 0-1.27v-1.27c.78.83 1.75 1.54 2.52 2.19 2.53 2.1 5.31 3.93 8.28 5.34-.47 2.97-1.1 6.12-1.22 9.12-2.1-.8-3.99-1.88-5.62-3.54zm2.05-10.2c-1.13-.86-6.34-4.29-5.51-6.13.16-.35-.13-.74-.48-.81.02-1.47.04-2.94.07-4.41.04-1.64.09-3.28.15-4.92.73.96 1.57 1.81 1.95 2.2 2.8 2.92 6.31 5.29 10.16 6.58l-1.29 10.25c-.02.18-.05.37-.08.56-1.69-1.04-3.37-2.11-4.97-3.32zm.36-12.54c-1.2-.97-6.44-5.22-5.62-7.01.13-.28-.09-.62-.37-.72.08-2.28.17-4.55.24-6.83.77 1.21 2.02 2.23 3.11 3.02 3.05 2.21 6.51 4.07 9.97 5.57-.32 2.67-.63 5.34-.96 7.99-.08.61-.15 1.21-.23 1.82-2.16-1.1-4.22-2.3-6.14-3.84zm-29.3 1.4c.57.98 2.1.48 1.89-.68-.57-3.04 3.35-3.85 5.32-2.51 1.49 1.02 2.33 2.7 2.95 4.34.34.89 1.91.56 1.85-.39-.32-5.14 4.44-7.87 8.92-6.19-.06 1.7-.11 3.39-.16 5.09-.09 3.08-.19 6.18-.26 9.28-1.45-.47-2.56-1.68-2.67-3.4-.08-1.15-1.65-1.62-2.09-.4-1.47 4.03-6.56 4.26-8.53.46-.38-.74-1.72-.77-1.93.14-1.1 4.92-6.57 6.33-10.23 3.02-.04-.04-.09-.06-.13-.08l.64-4.82.87-6.54c1.48.46 2.66 1.12 3.56 2.68zm.45-51.74c-2.84-1.46-5.38-3.26-7.52-5.71-2.01-2.3-3.08-4.78-4.26-7.44 1.79.58 3.66.9 5.57.88 1.88-.02 6.2-.73 8.6-2.48-.92 4.88-1.69 9.81-2.39 14.75zm-10.99-20.91c-.02.26-.02.52.01.79.05.48.59.89 1.06.9.1 0 .21 0 .31.01.46.01.94-.44.89-.91l.06-.57c3.55.38 10.91 1.44 9.91 3.7-.57 1.29-4.03 2.04-5.24 2.25-1.75.31-3.53.28-5.28-.01-3.68-.61-6.97-2.39-10.14-4.27 1.62-2.58 5.6-2.15 8.42-1.89zm-9 2.91c1.84 1.63 3.93 3.04 6.18 4.06.84 6.78 7.29 13.08 13.63 15.28-.48 3.46-.92 6.94-1.36 10.41-8.76-4.66-14.94-11.46-17.82-21.26-.16-.55-.66-.74-1.09-.65.17-2.61.32-5.23.46-7.84zm-.65 10.78c2.62 8.96 10.01 17.38 18.93 20.33-.57 4.64-1.13 9.27-1.72 13.89-4.08-2.33-7.82-4.76-11.02-8.31a33.35 33.35 0 01-4.17-5.77c-1.12-1.95-1.75-4.23-3.01-6.06.34-4.68.68-9.38.99-14.08zm-1.31 18.54c1.4 3.25 3.95 6.41 6.03 8.69 3.29 3.6 7.61 6.85 12.31 8.32-.11.82-.21 1.63-.32 2.44-.67 5.03-1.34 10.05-2.02 15.08-3.78-2.46-7.21-5.06-10.11-8.59a33.706 33.706 0 01-3.8-5.73c-.98-1.86-1.45-4.24-2.8-5.83a.51.51 0 00-.21-.15c.27-4.74.59-9.48.92-14.23zm-2.04 62.29c-.01-2.07-.01-4.13 0-6.2 0-.55.01-1.1.01-1.64 2.57 6.1 7.39 11.81 13.8 13.02 0 .09.01.19.01.28-1.75 2.09-4.55 2.63-7.18 2.19-1.26-.21-2.44-.61-3.63-1.08-.55-.21-1.09-.45-1.63-.67-.05-.02-.2-.07-.37-.13 0-.05 0-.1-.01-.15-.04-.31-.33-.63-.64-.71-.09-.03-.18-.05-.28-.08a.566.566 0 00-.18-.03c-.22-1.45.1-3.87.1-4.8zm13.8 3.86c-3.3-1.2-6.04-3.27-8.22-6.1-2.61-3.39-3.72-7.28-5.51-11.05.02-1.77.04-3.54.07-5.31.03-1.57.06-3.13.1-4.7 1.07 2.46 2.67 4.78 4.24 6.58 2.91 3.33 6.84 5.92 11.18 6.88-.16 1.18-.32 2.36-.47 3.54-.44 3.24-1.33 6.8-1.39 10.16zm-8.12-22.16c-2.92-3.43-3.82-7.12-5.29-11.21.13-4.46.29-8.92.48-13.37l.06-1.3c.45 1.07 1.02 2.1 1.49 2.99 1.14 2.17 2.52 4.24 4.09 6.13 3 3.62 6.97 6.91 11.34 8.73l-1.1 8.2c-.3 2.28-.61 4.55-.91 6.83-3.91-1.59-7.37-3.72-10.16-7zm-28.8-6.4c.12-.02.24-.07.36-.14 3.67-2.32 8.62-.88 10.41 3.1.52 1.15 2.09.41 1.96-.7-.62-5.13 6-6.67 8.32-2.38-.09 3.74-.15 7.47-.2 11.21-2.64 2.11-6.67 2.31-9.08-.37-.38-.42-1.1-.49-1.52-.08-3.13 3.03-7.85 2.65-10.74-.48-.04-.04-.08-.08-.12-.11.22-3.36.43-6.7.61-10.05zm-2.66 28.14c.42-.28.56-.71.5-1.11.11-.16.19-.35.21-.58.43-4.52.8-9.04 1.13-13.57 3.27 2.75 8.45 2.7 11.78-.01 2.85 2.25 7.15 2.32 9.86.08-.02 2.32-.05 4.64-.06 6.96-.01 2.41 0 4.82.01 7.24.01 1.25-.36 3.31.47 4.42.6.8 1.39.93 1.99.63 5.04 2.95 11.99 4.23 15.9-1.07.37-.51.25-1.03-.09-1.37 1.03-3.34 1.06-7.31 1.51-10.72l.81-6.1c3.57 3.87 9.52 2.57 11.83-1.8 2.73 2.93 7.32 2.77 9.89-.2.82 1.55 2.24 2.69 4.01 3.06-.1 5.03-.11 10.06.14 15.06.02.65.48 1.03.98 1.12.26 1.76 3.62 2.52 5.17 2.64 1.74.13 5.28-.14 6.32-1.94.47.28 1.11.2 1.35-.5 1.29-3.86 1.28-8.46 1.79-12.5l.24-1.92c3.93 2.57 8.98 2.4 12.71-.34 1.95 2.43 5.05 3.47 8.06 2.71.84 5.1 4.43 9.26 9.28 10.84-4.32 3.93-3.57 11.13 1.66 13.95a11.087 11.087 0 00-4.35 8.56c-3.72-2.89-8.5-4.63-13.16-3.16-4.14 1.31-7.2 4.95-7.53 9.17-3.78-1.45-8.11-.46-10.89 2.51-1.66-2.13-4.1-3.88-6.9-3.19-1.61.4-2.9 1.54-3.4 2.96-4.34-4.31-12.16-3.74-15.93.96-4.69-8.4-16.86-9.04-22.44-.94-3.48-1.12-7.18.18-9.38 2.97-6.41-9.08-19.41-10.05-27.14-2.1-1.32-2.48-3.86-4.09-6.74-4.51-3.96-.57-7.63 1.23-10.86 3.38-1.45-3.21-5.78-3.65-7.96-1.02-4.36-6.23-12.67-8.94-19.86-6.49.22-3.65-1.65-7.19-4.78-9.03 4.07-2.43 5.17-7.85 2.41-11.7a6.078 6.078 0 004.67-5.13c8.06.97 16.07-5.05 17.04-13.19 3.05.3 5.82-1.74 6.61-4.61 1.64 1.04 3.72 1.22 5.57.46.01 1.23.01 2.46.02 3.69l.05 7.2c.01 2.12-.25 4.38.41 6.41.16.49.72.73 1.14.57 4.24 4.14 11.03 4.47 15.95 1.25zm-1.62-1.81c-.01.09 0 .18.01.26-4.39 2.51-9.62 1.87-13.68-1.08.33-1.78.14-3.65.13-5.46-.01-1.29-.02-2.57-.02-3.86.76 1.27 1.79 2.41 2.72 3.24 3.03 2.7 7.03 4.32 10.99 5.06-.03.32-.05.64-.08.97-.03.28-.06.57-.07.87zm-8.29-7.24c-1.26-.92-2.4-1.99-3.26-3.29-.97-1.47-1.03-2.86-1.53-4.47a.685.685 0 00-.51-.48c-.01-2.06-.03-4.12-.04-6.17 1.22 1.84 2.87 3.51 4.26 4.68 2.93 2.48 6.56 4.18 10.38 4.63-.23 3.07-.48 6.14-.74 9.2-3.03-.97-5.98-2.21-8.56-4.1zm-.06-11.31c-1.32-1.21-2.5-2.57-3.46-4.09-.7-1.11-1.15-2.38-1.86-3.47 0-.6-.01-1.19-.01-1.79-.02-1.91-.02-3.83-.03-5.75 1.43 1.94 3.39 3.71 4.53 4.71 1.94 1.69 4.04 3.25 6.24 4.58 1.2.73 3.09 2.06 4.64 2-.19 2.95-.39 5.9-.61 8.84-3.53-.98-6.71-2.52-9.44-5.03zm10.49-11.39c-.1 2-.22 3.99-.34 5.99-1.03-.66-2.3-1.11-3.29-1.73-1.63-1.01-3.19-2.14-4.69-3.33-1.43-1.13-2.81-2.34-4.03-3.7-.84-.94-4.01-4.48-3.32-5.86.17-.35.06-.72-.21-.89-.01-1.91-.04-3.81-.08-5.72 1.42 2.73 3.8 5.26 5.83 6.99 2.88 2.45 6.51 4.34 10.28 4.94l-.15 3.31zm.91-22.24c-.12 2.58-.21 5.17-.3 7.75-.01.18-.01.37-.02.55-1.52-.81-2.89-1.83-4.08-3.17-1.23-1.39-1.77-2.95-2.51-4.48 2.29-.08 5.31-.45 6.92-1.77.01.37.01.75-.01 1.12zm-10.62-6.28c-.04.69-.09 1.38-.16 2.07-.08.92 1.44 1.25 1.63.31.15-.77.28-1.59.38-2.43.87.03 1.73.14 2.58.31.8.16 3.83.69 4.19 1.47l-.27 2.12-.94.25c-.54.25-1.33.31-1.91.42-1.5.27-3.04.43-4.56.31-2.77-.22-5.29-1.27-7.18-3.23 2.1-.64 4.04-1.39 6.24-1.6zm1.64 6.93c.31 2.2 1.98 4.51 3.4 5.95 1.47 1.49 3.24 2.63 5.21 3.29-.1 2.55-.2 5.11-.32 7.66-3.49-1.23-6.67-2.82-9.46-5.38a23.938 23.938 0 01-3.75-4.35c-1.12-1.68-1.71-3.62-2.8-5.29a.742.742 0 00-.29-.27c-.06-1.72-.13-3.44-.23-5.15 2.07 2.29 5.06 3.43 8.24 3.54zm-58.26 85.7c-1.9-3.96.44-8.36 2.29-11.83.36-.68-.13-1.86-1.06-1.55-3.52 1.19-5.93-2.8-5.16-5.87.57-2.26 2.06-3.96 3.55-5.66.83.47 1.59-.58 1.05-1.32 0 0 0-.01-.01-.01.03-.23-.15-.44-.37-.51-1.56-2.22-2.6-4.43-2.35-7.3.26-3 1.87-5.67 4.12-7.63 4.99-4.33 11.85-4.66 18.12-4.07 1.02.1 1.37-1.1.87-1.81-1.9-2.65-.69-6.39 1.84-8.15 2.87-2 6.56-1.62 9.68-.5.6.21 1.48-.26 1.43-.97-.26-3.51 1.48-6.94 4.79-8.4 3.35-1.48 6.74-.35 9.4 1.81 0 .52.01 1.04.01 1.57.01 3.08.03 6.16.05 9.24-.05.01-.1.02-.16.05-2.13.89-4.15.14-5.43-1.7-.47-.67-1.79-.23-1.73.61.23 2.95-2.58 5.39-5.47 4.43-.64-.21-1.36.26-1.39.94-.35 7.71-8.08 13.94-15.72 12.25-.84-.19-1.48.39-1.39 1.24.29 2.64-2.4 4.72-4.87 4-1.17-.34-1.94 1.2-.94 1.92 4.46 3.19 3.04 9.71-2.28 10.87-.97.21-1.17 1.8-.11 2.05 4.14 1 6.79 5.23 5.61 9.38-.25.9.64 1.7 1.5 1.29 7.09-3.41 16.11-.46 19.82 6.46.43.8 1.69.75 1.98-.15.95-2.96 4.78-2.58 5.2.53.12.89 1.18 1.01 1.78.58 2.7-1.93 5.85-3.89 9.29-3.86 3 .02 6.01 1.7 6.75 4.75.24.97 1.42 1.11 2 .37 6.84-8.67 20.17-7.58 25.58 2.01.52.91 1.67.71 2.08-.16 1.51-3.16 5.29-4.32 8.41-2.96.44.19 1.06-.05 1.3-.45 4.88-8.14 16.53-7 19.89 1.8.29.75 1.59.84 1.95.11 2.56-5.17 10.19-6.27 14-1.86.32.37.72.44 1.08.33.03.12.07.24.11.35.18.45.99.29.96-.2-.17-2.28 1.81-4.13 4.1-3.69 1.94.38 3.26 1.93 4.2 3.56.39.68 1.33.76 1.79.1 2.36-3.41 7.03-4.4 10.57-2.22.84.52 1.72-.21 1.62-1.11-.5-4.36 3.12-8.19 7.28-8.89 4.49-.75 8.82 1.67 11.87 4.76.72.73 2.11.15 1.85-.94-1.02-4.17.95-8.35 4.8-10.22.8-.39.75-1.74-.15-1.98-6.04-1.62-6.93-9.46-1.26-12.26 1.01-.5.58-1.91-.43-2.03-5.37-.67-9.69-5.22-10-10.65-.05-.82-.76-1.37-1.56-1.01-2.7 1.22-5.82.2-7.29-2.36-.34-.59-1.14-.79-1.67-.31-3.17 2.9-7.78 3.2-11.31.76-.22-.15-.44-.2-.64-.19.39-3.08.77-6.16 1.16-9.24.21-1.67.43-3.34.66-5.02.06-.01.12-.02.19-.04 6.3-1.85 13.06 2.66 13.82 9.16.09.77 1.18 1.07 1.71.55 4.27-4.22 11.55-6.02 16.75-2.31 4.61 3.29 5.96 10.2 2.56 14.78-.61.83.44 1.93 1.31 1.47 3.84-2.04 8.63.52 10 4.45 1.67 4.78-1.37 9.67-5.03 12.53-.87.68-.01 1.81.88 1.72 2.31-.24 4.7 1.39 5.12 3.74.52 2.93-2.31 5.28-5.04 5.26-.13 0-.23.03-.32.08-.06-.01-.12-.04-.19-.05-.84-.17-1.59.94-.72 1.47 3.28 1.99 5.74 4.44 6.32 8.41.57 3.88-1.23 7.56-4.26 9.95-7 5.5-16.3 2.17-21.15-4.43-.55-.74-1.87-.23-1.87.66.01 3.43-2.86 6.2-6.27 6.33-3.18.12-5.97-1.73-7.96-4.04-.53-.61-1.53-.37-1.79.37-1.27 3.59-6.24 5.05-9.16 2.48-.59-.52-1.88-.37-1.83.64.34 6.56-8.76 6.32-13.16 5.29-4.2-.99-8.04-3.22-9.22-7.6-.19-.72-1.13-.52-1.16.14-.48-.11-1.02.06-1.25.64-2.32 5.78-10.33 5.32-11.87-.75-.22-.87-1.38-1.12-1.9-.36-2.85 4.17-7.26 7.95-12.56 8.07-4.64.11-9.24-2.95-10.09-7.63-.14-.79-1.43-1.14-1.83-.34-1.06 2.13-3.9 2.69-5.56.87-.56-.62-1.8-.29-1.78.62.07 3.28-2.18 6.44-5.55 6.94-3.85.57-6.95-2.86-7.23-6.43-.08-.96-1.32-.89-1.79-.34-2.43 2.86-7.12 1.71-8.68-1.4-.18-.35-.61-.39-.9-.23-.33-.05-.68.07-.93.44-2.06 3.11-5.05 5.93-8.96 6.22-4.04.3-7.99-3-7.44-7.21.13-1.02-1.36-1.46-1.88-.62-2.06 3.3-6.31 2.78-7.7-.8-.29-.76-1.36-.66-1.77-.1-4.04 5.63-12.35 1.91-11.3-4.79.1-.61-.64-1.26-1.23-1.05-3.7 1.31-8.84 2.6-10.97-1.84zm10.05 4.28c.01 7.29 8.96 10.78 14.1 5.78 2 3.01 5.95 3.6 8.75 1.58.74 3.51 3.93 6.28 7.58 6.8 4.98.71 9.49-2.65 12.15-6.61 1.97 2.96 6.27 3.8 9.3 1.93 1.04 3.72 4.38 6.69 8.47 6.48 3.95-.2 7.09-3.36 7.82-7.09 1.91.92 4.27.66 5.89-.7 1.7 4.25 6.08 7.07 10.7 7.29 5.63.27 10.53-3.13 13.94-7.38 3.04 5.97 11.87 6.18 14.9-.26 3.43 8.94 23.37 11.73 25.07 2.06 3.57 1.74 8.15.55 10.29-2.86 2.68 2.57 6.35 4.25 10.12 3.43 3-.65 5.45-2.88 6.37-5.71 2.65 2.85 6.11 4.87 9.75 5.7l-.03.06c-2.3 5.65-2.29 12.14-2.76 18.14l-.75 9.56c-.23 2.95-.83 6.14-.59 9.11-3.25-.52-6.74.23-9.4 2.2-.85-3.37-4.42-5.67-7.95-5.84-5.08-.24-9.04 3.67-12.2 7.31-2.71-4.34-8.96-4.61-12.04-.43-3.88-3-9.72-2.53-13.02 1.08-4.26-7.74-15.45-8.37-20.4-.66-3.42-5.43-11.6-6.09-15.92-1.54-2.91-3-7.65-3.54-11.22-1.45-2.04-5.42-7.22-9.51-13.16-9.59-5.81-.08-11.07 3.71-13.31 8.93-2.87-2.7-7.34-3.26-10.73-1.18-1.4-4.05-6.7-5.05-9.4-1.84-2.31-4.62-6.43-8.55-11.73-9.16-4.72-.54-9.58 1.85-11.7 6.05a10.31 10.31 0 00-1.98-1.4c.58-2.96.04-6.26-.05-9.26-.05-1.49-.09-2.99-.13-4.48 2.64 1.88 6.98.32 7.88-3.23.63-2.53-.41-5.33-2.23-7.12-1.47-1.45-4.05-2.54-5.87-1.26-.04-4.56-.08-9.14-.39-13.67 1.3-.11 2.62-.4 3.88-.77zm-3.43 19.8c-.02-1.1-.04-2.2-.05-3.3.23.03.47-.04.7-.25 1.42-1.32 3.47.19 4.41 1.39 1.1 1.39 1.68 3.33 1.16 5.06-.67 2.26-4.08 3.49-6.11 2.21-.03-1.7-.07-3.4-.11-5.11zm-.3 49.62c-.37-.23-.89-.18-1.12.22-2.56.35-5.21-.35-7.01-2.47-3.89-4.61-.04-11.5 5.08-12.9.55-.15.52-.98-.08-1.02-.49-.04-.97-.02-1.43.04.49-.1.99-.25 1.49-.48.72-.33.28-1.4-.45-1.27-4.71.84-8.49-3.93-5.71-8.16 2.87-4.35 8.57-3.09 11.39.51.5.64 1.61.37 1.84-.38 1.38-4.61 6.48-7.07 11.07-6.04 4.87 1.09 8.2 5.29 9.88 9.75.34.91 1.72.67 1.99-.15 1.28-3.83 6.58-3.23 6.67.93.02.88 1.08 1.57 1.81.87 2.89-2.79 7.94-2.39 10.16 1.07.47.73 1.73.83 2-.15 1.45-5.18 6.25-9.28 11.76-9.22 5.49.06 10.28 4.15 11.62 9.38.21.81 1.17 1.14 1.81.59 3.14-2.7 7.9-1.97 10.27 1.34.43.6 1.38.4 1.74-.13 3.04-4.38 10.4-4.17 13.13.45.5.85 1.6.64 2.01.02.29.16.67.13.91-.23 4.74-7.18 15.19-6.09 18.29 1.92.27.69 1.31.66 1.67.09 2.55-4 8.56-4.69 11.87-1.24.42.43 1.28.48 1.6-.12 2.34-4.35 8.06-3.94 9.8.66.31.82 1.35.62 1.79.1 2.57-3.03 5.68-6.76 9.81-7.53 3.57-.66 8.23 1.69 7.74 5.79-.14 1.16 1.32 1.35 1.93.64 3.91-4.55 12.41-4.06 15.4 1.32 2.94 5.29-.75 12.51-6.48 13.77-.84.19-1.07 1.16-.58 1.79.87 1.13 1.81 2.3 2.24 3.68.29.95.07 2.92-.79 3.8-.27-.15-.64-.1-.75.27-.01.05-.02.1-.04.14-.38.06-.83-.05-1.36-.4-1.06-.7-2.25.71-1.44 1.66 3.01 3.55 1.03 9.38-3 11.25-5.43 2.52-11.21-2.5-12.43-7.58-.27-1.14-1.7-1.08-2.14-.12-1.6 3.47-6.32 3.78-9.31 2.08-3.38-1.93-5.18-5.71-6.56-9.18-.26-.65-1.2-.74-1.67-.31-3.76 3.38-9.32 3.5-13.31.53-.31-.68-1.33-1.02-1.87-.2-2.23 3.39-6.1 5.55-10.24 4.94-4.21-.63-7.05-3.89-8.79-7.54-.27-.57-1.04-.21-.98.35.02.15.05.3.07.45-.02-.05-.04-.09-.06-.14-.58-1.21-2.38-.27-1.84.94 1.67 3.75-3.46 6.25-6.43 5.06-2.98-1.2-4.68-4.39-5.77-7.22-.37-.97-1.68-.62-2.01.15-2.46 5.67-10.44 5.47-12.51-.39-.3-.86-1.43-1.23-2-.38-7.74 11.51-24.91 10.49-31.24-1.86-.39-.77-1.4-.75-1.89-.1-3.84 5.06-12.12 4.62-15.67-.51-.51-.74-1.56-.28-1.84.38-2.98 6.92-12.98 3.99-12.19-3.39.11-1.03-1.48-1.61-1.98-.66-1.13 2.29-3.39 3.9-5.87 4.54zm169.48 50.16c-3.02-.85-6.23-.18-8.71 1.79-1.21-3.74-4.93-6.32-9.01-6.29-4.66.03-8.33 3.31-10.52 7.2a6.099 6.099 0 00-2.3-2.02c-2.02-1.03-3.49-.59-5.51-.04-2.62.72-4.44-2.01-7.26-1.68-2.19.26-4.14 1.46-5.88 2.8-3.22-5.08-9.02-8.31-15.13-7.82-6.23.5-11.62 4.78-13.8 10.56-3.6-7.98-14.22-9.2-19.73-2.62-2.93-2.99-7.9-3.06-11.07-.41-5.1-10.41-19.1-12.83-27.39-4.59a6.164 6.164 0 00-6.91-.77c-1.56-5.99-8.55-8.8-13.68-4.93-2.71-3.73-8.35-4.39-11.68-1.17.22-6.49-.02-13.03-.06-19.52-.03-6.19.04-12.41-.34-18.6 2.04-.5 3.96-1.52 5.43-2.98.76 3.21 3.22 5.97 6.63 6.58 3.48.62 6.8-1.05 8.7-3.84 4.39 4.72 12.42 4.75 17.03.32 3.44 5.64 9.46 9.54 16.14 9.94 6.58.39 12.93-2.67 17.01-7.72 3.3 5.42 10.9 5.82 14.68.78 1.85 3.69 5.05 7.36 9.46 6.94 3.42-.33 6.46-3.39 6.21-6.71 1.35 3.66 4.91 6.36 8.76 7.04 4.46.79 9.06-1.2 11.77-4.75 4.29 3 10.12 2.9 14.38-.07 1.84 4.28 4.64 8.71 9.4 9.89 3.14.78 6.47.01 8.59-2.23 2.46 5.52 8.93 9.77 14.88 6.92.97-.46 1.84-1.1 2.58-1.85-.34 3.06-.61 6.13-.93 9.16-.39 3.73-.75 7.46-1.06 11.2-.24 3.13-.74 6.36-.68 9.49zm-179.8-13.09c.2-.2.25-.53.17-.82.16-.51.41-1 .76-1.44 1.98-2.45 5.8-2.1 7.87-.03.02 1.91.06 3.82.15 5.72-.02.98.98 1.35 1.66 1.05.17.16.45.23.65.03 3.02-2.99 8.69-2.29 10.6 1.57.26.53.99.65 1.42.26 4.36-3.92 11.2-1.54 11.63 4.5.06.79.95 1.41 1.63.78 1.87-1.72 4.6-1.52 6.22.44.32.38 1.05.46 1.4.08 7.71-8.48 21.31-5.99 25.48 4.68.3.77 1.34.64 1.76.1 2.5-3.22 7.57-2.82 9.82.42.39.56 1.3.38 1.63-.12 4.58-6.83 14.48-5.44 17.28 2.18.38 1.02 1.66.59 1.9-.27.3.04.62-.09.76-.45 2.07-5.32 7.04-9.37 12.83-9.71 5.71-.34 11.12 2.97 13.75 7.97.32.62 1.11.73 1.63.3 1.69-1.38 3.9-3.1 6.21-3.09 1.98.01 2.69 1.97 4.46 2.32 1.47.29 2.49-.76 3.8-1.11 2.3-.61 4.51 1.01 4.95 3.27.21 1.08 1.68 1.05 2.06.11 1.44-3.64 4.3-7.16 8.36-7.87 3.84-.67 8.27 1.94 8.49 6.07.06 1.09 1.26 1.49 1.96.65 2.4-2.89 6.6-3.55 9.81-1.65 1.16.68 2.32-1.05 1.16-1.75-.12-.07-.24-.13-.36-.2.52-2.76.56-5.67.74-8.49.12.16.3.29.57.34 7.82 1.59 15.57 7.96 13.59 16.76-.8 3.56-3.36 6.64-7.07 7.26-3.63.6-7.44-.97-8.99-4.4-.42-.94-1.63-.62-1.99.15-1.07 2.28-5.08 2.03-5.87-.35-.3-.89-1.85-1.29-2.1-.12-.77 3.51-3.29 6.8-7.07 7.26-3.63.44-7-2.16-7.49-5.75-.14-.99-1.48-1.09-1.99-.37-4.15 5.77-12.55 4.79-15.44-1.62-.32-.7-1.46-.8-1.85-.1-1.47 2.63-4.84 3.15-7.11 1.22-.52-.44-1.39-.05-1.58.54-2.57 8.21-13.64 8.06-16.59.21-.23-.61-1.23-.3-1.18.29-.35-.22-.79-.23-1.16.18-2.92 3.21-8.05 3.59-11.24.53-.47-.45-1.37-.54-1.73.13-3.96 7.18-13.96 7.76-18.44.72-.39-.61-1.12-.79-1.7-.32-7.13 5.79-17.77 2.76-20.66-6.02-.24-.73-1.15-1.2-1.79-.58-2.58 2.48-6.34 3.09-9.52 1.36-.66-.36-1.32-.12-1.63.56-1.65 3.69-7.11 3.85-9.34.71-.42-.59-1.34-.38-1.7.12-5.18 7.29-16.57 3.71-16.58-5.26 0-.92-1.06-1.5-1.79-.86-4.1 3.59-10.64 5.23-14.9.91-1.74-1.76-2.84-4.38-2.09-6.85.86-2.85 3.51-4.88 6.49-4.64 1.25.1 1.46-1.62.4-2.07-2.11-.88-3.36-3.25-3.1-5.44zm176.35 47.69c0 .16.02.3.07.42-43.46 12.23-89.7 14.23-134.04 5.57-11.7-2.29-24.07-4.75-33.96-11.81.23-.17.38-.44.4-.82.3-6.16.6-12.3 1.01-18.45 1.12-.44 2.2-1.01 3.2-1.69.72 4.08 3.49 7.68 7.57 9 4.3 1.39 8.94-.19 11.89-3.44 3.27 3.19 9.06 2.38 11.59-1.36 3.32 1.38 7.03 1.02 9.95-1.06 3.91 8.78 14.69 11.91 22.67 6.35 5.36 6.93 15.9 6.83 20.85-.52 4.01 2.88 9.81 2.54 13.22-1.27.11-.12.18-.25.23-.38 3.59 8.1 15.04 7.98 18.75 0 2.59 1.39 5.86.97 7.93-1.12 3.77 5.97 11.95 6.81 16.96 2.01 1.41 3.4 4.98 5.7 8.76 5.51 4.04-.21 7.29-3.12 8.8-6.72 1.93 1.73 5.02 1.87 7.09.29-1.86 6.25-2.82 13-2.94 19.49zm-221.45-32.66c10.56-11.39 28.23-13.3 42.96-14.67-.04 1.92.71 3.86 2.03 5.29-5.4 1.52-7.78 8.56-4.32 13.45 3 4.23 7.74 5.24 12.2 4.16-.81 5.84-1.26 11.78-1.24 17.67 0 .46.22.79.53.98-.23.29-.3.7.04 1 7.93 6.99 18.32 9.5 28.41 11.71 11.24 2.46 22.62 4.25 34.07 5.36 23.12 2.24 46.5 1.69 69.5-1.58 13.04-1.85 25.93-4.61 38.6-8.21.86-.24 1.03-1.15.73-1.77.12-.16.2-.36.22-.61.51-6.22 1.34-12.28 2.38-18.4 2.03 1.86 4.84 2.81 7.68 2.7 4.34-.17 7.92-2.88 9.57-6.86.51-1.22.82-2.42.98-3.59.07.04.14.07.21.1 13.4 4.57 29.17 10.19 34.83 24.55 5.66 14.36-4.79 28.49-16.84 35.39-6.4 3.67-13.44 6.03-20.5 8.07-7.44 2.15-14.98 3.95-22.59 5.41-15.23 2.92-30.71 4.48-46.21 4.82-31.06.7-62.12-3.32-92.3-10.53-14.71-3.52-29.28-7.74-43.56-12.73-12.98-4.54-26.63-10.37-35.5-21.35-9.08-11.24-12.5-28.91-1.88-40.36zm272.1 67.22c-9.85 7.41-22.13 11.95-33.81 15.52-11.89 3.63-24.15 5.98-36.5 7.36-26.03 2.91-52.57 1.76-78.5-1.51a401.073 401.073 0 01-78.5-18.09c-13.26-4.5-26.93-9.7-37.4-19.34-4.29-3.95-7.96-8.75-10.54-14.04 5.64 9.17 14.62 15.82 24.44 20.59 14.19 6.9 29.83 11.26 45 15.4 32.15 8.79 65.39 14.17 98.77 14.29 16.5.06 33.03-1.18 49.31-3.94 8.25-1.4 16.44-3.19 24.52-5.39 7.5-2.04 15.04-4.32 22-7.83 12.18-6.15 23.38-17.93 22.34-32.53-.5-7.01-3.79-12.81-8.44-17.51 5.35 3.93 9.69 9.13 11.36 15.64 3.15 12.35-4.53 24.21-14.05 31.38z" fill="#fff"/><path d="M94.3 220.741c-.05-3.63-3.28-6.99-6.99-6.03-3.34-.08-6.24 2.9-6.4 6.27-.18 3.81 3.44 6.74 7.05 6.73 3.76-.02 6.39-3.37 6.34-6.97zm-6.74 4.87c-2.46-.17-4.8-2.21-4.63-4.8.14-2.07 1.56-3.63 3.34-4.46.17.39.55.66 1.09.48 5.85-1.94 6.62 9.24.2 8.78zm35.501-7.85c-.15 0-.27.06-.35.14-.09-.26-.33-.48-.71-.51-3.51-.29-6.22 3.63-6.28 6.81-.08 3.62 2.97 6.23 6.47 6.31 3.5.08 6.68-2.29 6.82-5.94.11-3.41-2.41-6.8-5.95-6.81zm-.76 10.64c-2.36-.03-4.47-1.61-4.52-4.09-.05-2.77 1.95-4.46 4.35-5.27.26-.09.43-.27.53-.48.05.06.12.12.22.15 4.93 1.69 5.63 9.77-.58 9.69zm45.6-4.29c-.56-3.21-3.66-5.88-6.88-5.51-.09-.24-.33-.43-.6-.37-3.81.83-7.6 4.18-7.33 8.35.28 4.31 5.01 6.32 8.83 5.55 3.75-.77 6.66-4.07 5.98-8.02zm-7.3 6.12c-3.22.21-6.36-2.14-5.26-5.64.67-2.14 2.42-3.32 4.16-4.5.13.15.3.26.51.28 2.89.2 5.56 1.06 5.93 4.38.33 3.14-2.44 5.29-5.34 5.48zm49.39-6.56c-1.67-2.59-6.11-3.75-8.57-1.77-3.95.21-6.51 4.25-5.55 8.02 1.08 4.27 6.4 5.99 10.21 4.49 4.04-1.58 6.38-6.93 3.91-10.74zm-5.29 9.06c-2.6.67-6.03-.44-6.88-3.24-.68-2.24.49-4.78 2.45-5.94.02.52.61.89 1.12.5 2.39-1.83 6.36-1.78 7.42 1.61.92 2.95-1.2 6.33-4.11 7.07zm34.15-7.61c-.32-3.45-4.36-6.88-7.82-5.31-2.74.47-5.06 2.71-5.27 5.73-.26 3.82 3.4 7.2 7.16 6.92 3.6-.26 6.25-3.83 5.93-7.34zm-5.95 5.27c-2.5.27-5.05-1.92-5.14-4.45-.08-2.07 1.48-3.78 3.35-4.55.02 0 .04.01.06.01 2.67.08 5.58.87 5.69 4.13.08 2.27-1.66 4.61-3.96 4.86zM85.93 289.531c-.22-3.49-3.27-6.1-6.61-6.22a.592.592 0 00-.7-.2c-3.45 1.26-6.289 3.81-5.569 7.8.6 3.31 3.52 5.84 6.95 5.37 3.28-.45 6.14-3.37 5.93-6.75zm-6.949 4.81c-2.37-.11-3.97-2.31-4.11-4.54-.13-2.23 1.3-3.71 2.97-4.87.15.2.37.33.68.32 2.51-.12 5 1.46 5.39 4.09.42 2.71-2.33 5.11-4.93 5zm31.32-7.75c-.38 0-.66.19-.83.44-3.03.42-5.61 2.96-5.63 6.19-.02 3.57 3.31 6.67 6.83 6.59 3.4-.08 6.26-3.15 6.4-6.5.15-3.73-3.16-6.76-6.77-6.72zm.62 11.16c-2.4.23-4.77-1.67-5.12-4.07-.36-2.45 1.56-4.6 3.79-5.31.14.12.34.2.58.21 2.4.1 4.58 1.68 4.82 4.17.24 2.34-1.71 4.78-4.07 5zm39.74-4.14c-.41-3.46-3.56-5.75-6.86-5.76a.492.492 0 00-.47-.28c-3.62.16-6.53 3.54-6.26 7.17.27 3.65 3.8 6.69 7.46 6.36 3.6-.34 6.56-3.88 6.13-7.49zm-6.93 5.49c-2.52-.15-4.75-2.52-4.7-5.04.05-2.2 1.5-3.81 3.3-4.8.18.35.55.62 1.04.57 2.49-.27 5.03 1.55 5.28 4.11.26 2.67-2.2 5.31-4.92 5.16zm46.34-3.77c-.26-2.79-2.67-5.04-5.34-4.94a.448.448 0 00-.2-.04c-3.58-.07-7 2.65-7.22 6.37-.2 3.4 2.87 6.77 6.35 6.56 3.75-.23 6.75-4.34 6.41-7.95zm-2.07 1.19c-.31 2.54-2.88 5.41-5.63 4.61-2.13-.62-3.56-3.14-2.97-5.27.46-1.69 1.74-2.93 3.25-3.72.19.36.56.61 1.03.46 2.59-.8 4.63 1.29 4.32 3.92zm36.16 1.84c-.19-2.53-2.63-5.21-5.2-4.97-.01-.21-.12-.42-.34-.48-3.34-.87-6.78 1.83-7.19 5.18-.44 3.62 2.71 7.06 6.33 7.09 3.49.02 6.65-3.34 6.4-6.82zm-2.13.91c-.32 2.35-2.8 4.32-5.17 3.71-2.26-.58-4.05-3.03-3.37-5.39.52-1.8 1.97-2.86 3.63-3.37-.32.59.09 1.47.91 1.28 2.36-.54 4.32 1.38 4 3.77zm-138.041 37.3c-1.8-2.41-6.19-3.81-8.61-1.5a.79.79 0 00-.24.5c-2.07 1.27-2.78 4.3-1.83 6.65 1.38 3.43 5.26 5.07 8.53 3.12 2.97-1.77 4.32-5.85 2.15-8.77zm-2.33 6.34c-4.53 4.52-9.52-3.95-5.45-6.41 1.91-.66 3.64-.94 5.37.44 1.97 1.57 1.79 4.26.08 5.97zm39.891.54c-.68-1.72-2.04-3.11-3.86-3.56-1.18-.29-2.5-.17-3.33.59-.09-.04-.19-.06-.31-.04-3.73.5-6.14 4.65-4.97 8.21 1.15 3.5 5.5 5.13 8.83 3.89 3.57-1.33 4.99-5.67 3.64-9.09zm-5.4 7.5c-2.38.3-5-1.11-5.45-3.59-.4-2.23.95-4.56 2.93-5.57-.04.61.67.94 1.18.57 2.46-1.78 4.93.62 5.22 3.15.29 2.54-1.22 5.11-3.88 5.44zm50.62-4.38c-.61-3.07-3.53-5.55-6.6-5.16-.05-.19-.19-.36-.44-.35-3.68.05-6.86 3.18-6.59 6.96.27 3.74 3.83 6.8 7.58 6.35 3.65-.45 6.8-4.05 6.05-7.8zm-6.66 5.85c-2.63.07-5.14-2.25-5.15-4.94-.01-2.32 1.6-4.18 3.64-5.03.06.49.52.99 1.09.89 2.48-.4 4.84 1.27 5.16 3.81.34 2.67-2.12 5.2-4.74 5.27zm50.65-6.98c-.45-3.29-3.68-5.13-6.68-4.37-.01-.17-.12-.33-.35-.36-3.33-.34-6.29 1.92-6.19 5.47.1 3.83 3.6 6.07 7.18 5.78 3.41-.28 6.55-2.84 6.04-6.52zm-7.18 4.51c-5.11-.36-5.22-7.04-.9-8.27-.7.67.1 1.96 1.13 1.54 2.39-.98 5.18.44 4.95 3.26-.21 2.51-2.97 3.63-5.18 3.47z" fill="#fff"/></svg>