<svg width="81" height="200" viewBox="0 0 81 200" fill="none" xmlns="http://www.w3.org/2000/svg"><path d="M47.6 104.01c-.44-.13-.86-.31-1.3-.38-1.52-.25-3.05-.39-4.56-.7-3.86-.79-7.66-1.79-11.02-4-2.45-1.61-4.89-3.22-7.37-4.78-1.99-1.25-3.56-2.94-5.13-4.63-1.25-1.36-2.41-2.81-3.61-4.21-1.51-1.77-2.69-3.75-3.84-5.76-2.07-3.62-3.73-7.43-5.35-11.27-1.11-2.65-1.8-5.42-2.42-8.2-.85-3.84-1.59-7.71-1.86-11.64-.2-2.85-.26-5.7.31-8.52.03-.15.07-.3.08-.46.26-3.96 1.5-7.7 2.71-11.43 1.74-5.32 4.25-10.25 7.63-14.72 1.96-2.59 4.12-4.98 6.96-6.68 2.04-1.23 3.87-2.83 6.12-3.71C27.89 1.77 30.88.87 34.04.4c4.57-.69 9.09-.45 13.56.48 2.93.61 5.85 1.43 8.45 3.03 3.36 2.07 6.44 4.45 9.16 7.35 2.73 2.91 4.87 6.13 6.44 9.78.85 1.98 1.92 3.87 2.79 5.84 2.15 4.9 3.43 10.06 4.34 15.32.46 2.66 1.04 5.32 1.2 8 .33 5.38.61 10.77-.14 16.16-.43 3.06-.83 6.11-1.6 9.1-.86 3.37-1.98 6.64-3.4 9.82-1.07 2.4-2.07 4.82-3.76 6.87-.64.77-1.28 1.54-1.96 2.26-.74.78-1.56 1.49-2.3 2.28-1.23 1.32-2.63 2.33-4.3 3.05-1.83.79-3.58 1.76-5.51 2.73.14.46.22.98.45 1.42.32.61.8 1.14 1.13 1.74 1.03 1.9.85 3.36-.56 5.07-.25.3-.46.62-.72.91-.53.61-.53 1.23-.15 1.92 2.18 3.98 2.48 8.24 1.59 12.58-.4 1.94-1.23 3.81-1.98 5.66-.81 2.01-1.92 3.85-3.2 5.61-2.74 3.76-4.97 7.8-6.6 12.17-.97 2.59-1.12 5.27-.95 7.98.3 4.86 2.25 9.13 5.18 12.91 1.5 1.94 3.51 3.44 5.86 4.39 1.64.66 3.24 1.44 4.85 2.18 3.63 1.68 6.7 4.16 9.25 7.18 2.22 2.63 3.69 5.65 3.56 9.28-.06 1.55-.54 2.88-1.38 4.09-.91 1.32-3.55 2-5.05 1.41-1.12-.44-1.93-1.84-1.76-3.23.07-.59.32-1.19.61-1.72.35-.66.99-.95 1.74-.93.6.01.77.18 1.38 1.45-.31.18-.64.34-.95.55-.61.41-.75.8-.48 1.33.33.66.89.93 1.53.65 1.11-.49 1.99-1.25 2.15-2.51.1-.75.09-1.55-.03-2.29-.54-3.2-1.89-5.99-4.1-8.4-2.66-2.9-5.76-5.09-9.47-6.44-1.66-.61-3.29-1.33-4.91-2.04-.63-.28-1.29-.59-1.79-1.04-3.31-2.99-5.94-6.44-7.19-10.82-1.08-3.77-1.3-7.57-.7-11.44.45-2.87 1.63-5.46 3.11-7.92 1.78-2.98 3.63-5.92 5.48-8.86 1.73-2.76 3.19-5.64 4.13-8.76.31-1.02.61-2.1.61-3.16.02-3.44-.61-6.75-2.31-9.8-.74-1.34-1.75-1.87-3.23-1.67-.53.07-1.05.26-1.59.31-1.31.14-2.28-.44-2.59-1.75-.23-.95-.22-1.97-.25-2.96-.05-1.14.33-2.29-.08-3.51zm-43-47.18c.13.68.24 1.37.38 2.05 1.2 5.84 2.87 11.52 5.96 16.68 1.03 1.72 2.04 3.45 3.05 5.18 1.8 3.08 4.07 5.8 6.55 8.34 3.36 3.46 7.3 6.18 11.54 8.41 3.69 1.94 7.61 3.36 11.87 3.54 1.15.05 2.31.19 3.46.14 3.76-.16 7.57-.11 11.03-2 3.25-.87 5.7-2.97 7.98-5.3 2.56-2.61 4.46-5.71 6.15-8.91 2.95-5.6 4.27-11.69 5.23-17.88.06-.38.05-.77.07-1.15.27-4.24.22-8.47.02-12.71-.09-1.92.03-3.88-.26-5.77-.69-4.49-1.4-8.97-2.76-13.34-1.42-4.59-3.14-9.03-5.53-13.18-4.39-7.7-10.54-13.39-19-16.39-5.76-2.05-11.63-3.1-17.69-1.59-2.75.69-5.52 1.48-8.1 2.62-4.38 1.93-7.89 5.02-10.76 8.87-3.4 4.55-5.97 9.5-7.89 14.84-1.26 3.51-2.11 7.09-2.37 10.8-.21 2.99-.38 5.97-.07 8.99.29 2.61.62 5.19 1.14 7.76zm47.82 48.11c.29.53.56.81.61 1.13.13.99.15 1.99.27 2.98.1.79.7 1.13 1.4 1.35.61.19 1.03-.12 1.4-.54.2-.23.43-.44.62-.68.48-.57.61-1.17.31-1.92-.55-1.37-1.4-2.55-2.29-3.71-.39-.51-.91-.57-1.44-.43-.87.23-1.73.53-2.64.82-.18 1.79-.38 3.45-.51 5.13-.07.94.34 1.21 1.5 1.08.12-.01.22-.18.33-.28.47-1.51-.46-3.14.44-4.93z" fill="#fff"/></svg>