<svg width="62" height="104" viewBox="0 0 62 104" fill="none" xmlns="http://www.w3.org/2000/svg"><path d="M12.863 31.85c-.301-.002-.459.012-.618.003-.922-.083-1.32-.393-1.432-1.234-.082-.64-.042-1.3-.068-1.945-.016-.356-.072-.714-.15-1.36-.378.505-.626.765-.791 1.063-.387.715-.697 1.474-1.096 2.179-.42.74-.948.787-1.563.16-.759-.777-1.476-1.593-2.246-2.37-.446-.454-.537-.945-.269-1.479.316-.63.593-1.312 1.044-1.828 1.246-1.42 2.197-3.087 3.665-4.323.479-.4.946-.86 1.247-1.409-.321-.34-.58-.192-.82-.091-1.795.765-3.585 1.525-5.374 2.307-.801.349-1.343.26-1.84-.456-.557-.795-1.04-1.643-1.587-2.525.585-.914 1.447-1.336 2.343-1.71.65-.267 1.3-.535 1.937-.824.234-.105.445-.283.637-.413-.034-.423-.323-.477-.577-.533-.637-.137-1.287-.232-1.924-.369-.307-.07-.608-.184-.893-.267.133-1.424.298-1.91 1.011-2.965 1.662.358 3.376.427 5.183.45-.055-.824-.651-1.197-.993-1.7-.4-.582-.828-1.146-1.244-1.721-.377-.512-.998-.842-1.191-1.574.18-.14.324-.29.501-.401 1.519-.935 3.037-1.869 4.562-2.797.07-.046.211.01.388.022.514 1.248.787 2.658 1.801 3.918.332-2.161.262-4.191.216-6.263.8-.298 1.563-.15 2.299-.232.736-.082 1.476-.47 2.318.033.277 1.394.05 2.968.778 4.321.597.509 1.294.135 1.987.318.21.237.456.515.747.83-.132.409-.265.806-.413 1.233.148-.002.247.03.311-.01 1.447-.849 2.893-1.708 4.347-2.551.275-.155.597-.229.87-.333.942.847 1.569 1.847 2.27 3.582-.137.478-.402.858-.915 1.023-.704.232-1.152.782-1.676 1.248-.56.51-.937 1.025-.656 1.85.17.485-.127.829-.561 1.037-.527.257-1.131.406-1.484.943.045.359.326.396.585.435.697.103 1.402.183 2.103.28.557.07 1.08.205 1.335.925-.254.504-.529 1.085-.84 1.645-.156.275-.366.515-.542.752-3.385-1.13-4.79-1.295-6.44-.718.315.21.546.433.811.54 1.673.658 3.349 1.287 5.03 1.92.406.152.85.232 1.232.425.262.135.458.413.738.677-.834 1.452-1.634 2.85-2.366 4.129-.032.751.317 1.208.64 1.622a30.771 30.771 0 012.56 3.97c.438.8 1.102 1.48 1.606 2.252.72 1.087 1.45 2.174 2.052 3.329 1.313 2.515 2.862 4.885 4.453 7.217 1.91 2.786 3.66 5.665 5.496 8.492 1.478 2.28 3.08 4.486 4.574 6.758 1.727 2.643 3.384 5.321 5.085 7.984 1.755 2.748 3.542 5.483 5.264 8.257.856 1.387 1.588 2.848 2.373 4.27.184.33.327.698.559.995.899 1.185 1.327 2.61 2.052 3.879.53.928.506 1.895.04 2.804-.37.719-.766 1.457-1.32 2.022-.823.85-1.736 1.645-2.719 2.3-2.67 1.778-5.53 3.183-8.544 4.323-2.685 1.02-5.388 1.973-8.166 2.73-2.246.618-4.425 1.469-6.67 2.098-1.985.556-4.005.979-6.026 1.39-3.414.693-6.87.976-10.347 1.119a16.96 16.96 0 01-4.204-.359c-1.643-.343-2.601-1.245-2.8-2.957-.221-1.937-.433-3.898-.387-5.841.162-6.35.45-12.688.686-19.038.108-2.981.198-5.967.346-8.946.12-2.546.302-5.092.484-7.637.398-5.468.83-10.929.823-16.412-.007-2.393.128-4.77.36-7.15.114-1.037.24-2.114.003-3.318zm40.133 60.878c1.096-.59 2.187-1.186 3.29-1.772.973-.517 1.743-1.266 2.53-2.01.573-.55.915-1.198 1.118-1.942.3-1.099-.179-2.037-1.285-2.223-1.81-.305-3.62-.61-5.496-.399-4.974.565-9.807 1.798-14.618 3.08-2.718.723-5.397 1.635-8.057 2.55a114.26 114.26 0 00-9.222 3.635c-2.855 1.262-5.416 2.946-7.848 4.852-.566.44-.834 1.037-.737 1.709.111.768.671 1.234 1.408 1.413.633.154 1.274.335 1.917.352 1.787.057 3.577.086 5.366.041 2.394-.058 4.744-.538 7.078-1 1.432-.28 2.854-.672 4.285-.963 2.078-.417 4.131-.905 6.131-1.603a385.12 385.12 0 014.768-1.63c3.257-1.094 6.426-2.332 9.372-4.09zM40.356 53.34c-.87.117-1.541.573-2.234.992-3.03 1.822-5.77 4.02-8.305 6.463-2.338 2.254-4.587 4.602-6.982 6.788-2.08 1.897-4.119 3.83-5.931 5.992-1.323 1.575-2.56 3.21-3.822 4.835-.577.743-.845 1.578-.891 2.547-.156 3.252-.091 6.501.036 9.751.008.204-.02.45.338.52.117-.14.273-.29.376-.464 1.603-2.648 3.56-5.033 5.608-7.341 2.827-3.205 5.754-6.317 9.068-9.043 2.714-2.231 5.376-4.537 8.128-6.725C38.322 65.6 41 63.661 43.617 61.66c.424-.321.792-.7 1.195-1.059-.097-.309-.123-.528-.23-.7a651.734 651.734 0 00-3.666-5.97c-.135-.227-.36-.394-.56-.592zM31.14 39.103c-.77.51-1.461.94-2.116 1.401-1.101.784-2.162 1.643-3.296 2.379-1.964 1.268-3.864 2.61-5.654 4.107-1.7 1.426-3.267 2.994-4.658 4.74-1.535 1.916-2.165 4.048-2.148 6.48.012 1.95-.164 3.899-.294 5.844-.135 1.838-.338 3.671-.49 5.516-.024.292-.16.656.268.856.117-.079.264-.143.373-.249.313-.3.625-.6.9-.941 2.183-2.632 4.621-5.02 7.154-7.309 2.286-2.068 4.591-4.12 6.896-6.173 2.551-2.273 5.174-4.445 8.087-6.251.353-.224.635-.55.966-.834-.128-.335-.181-.608-.316-.834a2053.28 2053.28 0 00-5.054-8.197c-.102-.178-.316-.284-.618-.535zM47.663 64.95c-1.3.472-2.442 1.066-3.486 1.856-.61.457-1.194.945-1.826 1.353a55.093 55.093 0 00-5.661 4.09c-2.086 1.728-4.183 3.456-5.985 5.482-1.731 1.94-3.438 3.9-5.058 5.931-2.19 2.752-4.297 5.581-6.424 8.384-.116.152-.14.381-.267.732.45-.102.76-.123 1.034-.238 1.552-.637 3.087-1.328 4.646-1.948 2.118-.84 4.244-1.652 6.378-2.436 1.146-.425 2.112-1.02 2.913-1.982a59.754 59.754 0 013.613-3.96c2.334-2.351 4.867-4.453 7.76-6.11 1.831-1.046 3.607-2.201 5.397-3.324.451-.278.97-.5 1.15-1.066-.473-1.171-3.103-5.46-4.184-6.764zM12.23 96.635c1.23-.427 3.852-1.884 4.505-2.492a5.64 5.64 0 00.653-.721c1.32-1.784 2.622-3.584 3.954-5.358 1.757-2.333 3.507-4.683 5.343-6.96 1.184-1.472 2.57-2.786 3.767-4.258 2.214-2.72 4.926-4.849 7.718-6.91 1.04-.773 2.155-1.473 3.1-2.356.92-.853 1.911-1.593 2.953-2.28.54-.36 1.118-.667 1.657-1.038.298-.207.544-.49.804-.74-.159-.735-.453-1.27-1.142-1.668-.764.39-1.585.713-2.283 1.2-2.367 1.627-4.773 3.212-7 5.009-2.78 2.236-5.415 4.659-8.086 7.039-1.294 1.152-2.518 2.383-3.756 3.593-.817.793-1.603 1.61-2.395 2.424-.684.696-1.375 1.375-2.022 2.102-1.193 1.33-2.316 2.728-3.534 4.027-1.312 1.386-2.302 3-3.346 4.578-.956 1.434-1.14 2.993-.89 4.809zm15.12-63.356c-.941-2.248-5.91-9.584-7.83-11.62-.133-.141-.354-.201-.796-.434.661 1.12 1.152 2.008 1.698 2.867.578.907 1.21 1.776 1.865 2.716-1.33 1.672-2.755 3.068-4.987 3.532-1.208-1.691-1.346-3.84-2.539-5.56-.104.224-.18.316-.183.407-.05 1.411-.066 2.82-.14 4.22-.038.747.009 1.492-.383 2.213-.243.44-.271 1.05-.267 1.583.03 3.355-.304 6.719-.024 10.075.017.19.097.371.19.697 1.267-.883 2.097-2.028 3.172-2.906 1.092-.885 2.107-1.865 3.193-2.756a64.665 64.665 0 013.46-2.688c1.133-.809 2.33-1.533 3.571-2.346zm10.574 16.385c-1.581.571-2.827 1.453-4.044 2.337-3.464 2.519-6.712 5.29-9.825 8.226-.866.814-1.775 1.592-2.61 2.431a235.343 235.343 0 00-4.363 4.572 471.105 471.105 0 00-3.956 4.297c-.449.488-.767 1.032-.792 1.737-.037 1.246-.113 2.489-.15 3.734-.001.176.13.358.227.615.678-.513 1.017-1.144 1.413-1.707a36.605 36.605 0 015.109-5.868c1.461-1.366 2.947-2.711 4.339-4.156 1.314-1.364 2.74-2.613 4.136-3.888a105.287 105.287 0 013.16-2.803 131.252 131.252 0 013.902-3.18c1.19-.94 2.423-1.82 3.619-2.754.46-.364.855-.802 1.283-1.203-.288-.955-.783-1.637-1.448-2.39zm-7.597-12.088c-.677-1.177-1.34-2.145-2.143-3.02-.279.047-.518.034-.691.128-1.405.81-2.85 1.568-4.165 2.496-1.32.933-2.541 2.011-3.752 3.088-1.45 1.29-2.958 2.524-4.22 4.026-.694.832-1.497 1.646-1.68 2.729a14.964 14.964 0 00-.097 4.307c.484.082.629-.254.84-.482.828-.856 1.625-1.738 2.485-2.557.824-.776 1.785-1.417 2.554-2.24 1.166-1.248 2.58-2.144 4.003-3.013 2.186-1.322 4.147-2.925 6.095-4.55.273-.227.47-.551.771-.912zM52.845 72.93c-1.095-.061-1.812.473-2.536.917a46.782 46.782 0 00-3.071 2.109c-2.389 1.765-4.712 3.627-7.147 5.323-1.843 1.286-3.163 3.07-4.763 4.59-.193.181-.352.422-.038.683 1.913-.532 3.846-1.037 5.757-1.603.453-.131.875-.412 1.268-.697.393-.284.735-.632 1.077-.98 1.33-1.37 2.927-2.386 4.536-3.379 1.787-1.105 3.652-2.092 5.465-3.154.404-.235.752-.577 1.148-.89-.4-1.133-1.053-1.989-1.696-2.919zM55 76.823c-.707.324-1.426.586-2.06.97-1.974 1.219-3.92 2.491-5.868 3.753-.632.407-1.255.842-1.84 1.32-.195.159-.583.323-.365.775.913-.132 1.818-.156 2.685-.533a3.986 3.986 0 011.419-.301c2.918-.1 5.837-.386 8.758.036.26.04.539.117.787-.268-.638-1.174-1.303-2.403-1.973-3.625a31.52 31.52 0 00-.985-1.683c-.075-.135-.246-.205-.558-.444zM14.665 15.776c-.2-2.086-3.048-8.589-4.577-10.444-1.19.575-2.169 1.45-3.243 2.34.241.335.408.599.612.841l4.38 5.239c.448.539.897 1.09 1.376 1.602.39.42.878.598 1.452.422zM7.996 29.558c.214-.206.364-.299.436-.436.186-.322.358-.666.507-1.009 1.05-2.435 2.172-4.82 3.795-6.943.455-.596.793-1.29 1.116-1.964.119-.255.047-.594.062-1.038-.367.203-.62.282-.81.446-1.011.89-2.06 1.748-2.997 2.71-1.315 1.352-2.586 2.752-3.532 4.413a11.45 11.45 0 00-.645 1.299c-.175.435-.097.842.317 1.146.556.421 1.102.866 1.751 1.376zm12.543-2.703c-.101-.23-.17-.484-.305-.71a2532.94 2532.94 0 00-4.467-7.563c-.163-.28-.32-.567-.525-.82-.121-.143-.32-.216-.628-.41-.024.478-.113.798-.036 1.08.552 2.203 1.099 4.412 1.717 6.598.338 1.195.815 2.35 1.247 3.52.09.24.234.495.571.465.755-.668 1.504-1.341 2.426-2.16zm-16.675-6.5c3.539-.743 6.59-2.516 9.932-3.436.144-.035.268-.17.428-.276-.366-.46-.887-.449-1.338-.471-2.281-.127-4.564-.215-6.746.665-1.181.479-2.53.558-3.592 1.457.302.802.791 1.365 1.316 2.062zM14.05 2.016c-.535.779-.495 1.507-.516 2.195-.059 1.621-.015 3.245-.108 4.859-.064 1.077.245 2.02.673 2.957.078.17.264.283.516.544.714-2.382.688-4.728 1.206-6.952.357-.19.665-.36.989-.535-.176-1.153-.01-2.29-.467-3.419-.799.133-1.544.239-2.293.35zm4.8 10.59c1.044-.314 1.688-.825 2.324-1.312.868-.667 1.767-1.007 2.796-.503.943-.656 1.834-1.262 2.712-1.879.032-.025.042-.1.068-.182-.445-.817-.89-1.645-1.315-2.424-.753-.098-1.28.21-1.766.53-1.068.719-2.089 1.518-3.163 2.231-1.219.8-1.469 2.013-1.655 3.538zM16.465 6.35c-.097.48-.2.84-.245 1.207-.332 2.462-.658 4.93-.972 7.396-.019.11.158.236.262.386a2.413 2.413 0 001.345-1.163c.304-.566.519-1.186.722-1.805.486-1.484.953-2.982 1.409-4.48.091-.298.124-.613.202-.994-.884-.177-1.67-.334-2.723-.547zm-.162 11.64c.345.9.958 1.328 1.56 1.768 1.396 1.028 2.776 2.074 4.18 3.079.602.429 1.151.97 1.968 1.142.482-.854.938-1.677 1.245-2.521-1.117-.423-2.143-.78-3.13-1.198-1.098-.458-2.168-.976-3.252-1.465-.788-.355-1.58-.642-2.571-.804zM3.744 13.845c.353.14.503.222.659.248 1.438.276 2.866.614 4.183 1.297.19.097.41.186.619.184 1.02-.01 2.044.012 3.088-.165-.08-.804-.752-1.125-1.07-1.67-.296-.507-.774-.697-1.325-.835-1.813-.452-3.64-.574-5.484-.275-.1.02-.192.08-.383.159-.075.29-.173.633-.287 1.057zm10.26 6.704c-.833.561-1.063 1.376-1.508 2.022-.259.386-.411.881-.493 1.342-.33 1.884-.203 3.784-.202 5.684.003.21.058.431.128.635.104.325.303.637.66.633.386 0 .766-.18.906-.573.108-.293.162-.633.155-.95a51.107 51.107 0 00-.124-3.09 10.948 10.948 0 01.178-3.08c.128-.64.232-1.279.331-1.923.028-.184-.007-.38-.031-.7zm2.749-3.924c.47.236.643.39.832.402.747.042 1.506.094 2.25.04 1.404-.096 2.796-.202 4.19.077.26.05.56.104.79.026.188-.061.298-.332.518-.595-.44-.16-.73-.287-1.032-.363-1.1-.283-2.218-.478-3.29-.832-.954-.318-1.794-.198-2.63.267-.463.268-.908.551-1.628.978zm5.989-4.772c-.322.073-.624.06-.827.203-1.523 1.065-3.313 1.762-4.709 3.349.665-.235 1.166-.398 1.665-.584 1.31-.496 2.613-1.008 3.915-1.52.131-.057.218-.224.372-.396-.123-.341-.262-.675-.416-1.052z" fill="#fff"/></svg>