<svg width="81" height="200" viewBox="0 0 81 200" fill="none" xmlns="http://www.w3.org/2000/svg">
<path d="M47.6001 104.01C47.1601 103.88 46.7401 103.7 46.3001 103.63C44.7801 103.38 43.2501 103.24 41.7401 102.93C37.8801 102.14 34.0801 101.14 30.7201 98.9301C28.2701 97.3201 25.8301 95.7101 23.3501 94.1501C21.3601 92.9001 19.7901 91.2101 18.2201 89.5201C16.9701 88.1601 15.8101 86.7101 14.6101 85.3101C13.1001 83.5401 11.9201 81.5601 10.7701 79.5501C8.70007 75.9301 7.04007 72.1201 5.42007 68.2801C4.31007 65.6301 3.62007 62.8601 3.00007 60.0801C2.15007 56.2401 1.41007 52.3701 1.14007 48.4401C0.940073 45.5901 0.880073 42.7401 1.45007 39.9201C1.48007 39.7701 1.52007 39.6201 1.53007 39.4601C1.79007 35.5001 3.03007 31.7601 4.24007 28.0301C5.98007 22.7101 8.49007 17.7801 11.8701 13.3101C13.8301 10.7201 15.9901 8.33011 18.8301 6.63011C20.8701 5.40011 22.7001 3.80011 24.9501 2.92011C27.8901 1.77011 30.8801 0.870108 34.0401 0.400108C38.6101 -0.289892 43.1301 -0.0498917 47.6001 0.880108C50.5301 1.49011 53.4501 2.31011 56.0501 3.91011C59.4101 5.98011 62.4901 8.36011 65.2101 11.2601C67.9401 14.1701 70.0801 17.3901 71.6501 21.0401C72.5001 23.0201 73.5701 24.9101 74.4401 26.8801C76.5901 31.7801 77.8701 36.9401 78.7801 42.2001C79.2401 44.8601 79.8201 47.5201 79.9801 50.2001C80.3101 55.5801 80.5901 60.9701 79.8401 66.3601C79.4101 69.4201 79.0101 72.4701 78.2401 75.4601C77.3801 78.8301 76.2601 82.1001 74.8401 85.2801C73.7701 87.6801 72.7701 90.1001 71.0801 92.1501C70.4401 92.9201 69.8001 93.6901 69.1201 94.4101C68.3801 95.1901 67.5601 95.9001 66.8201 96.6901C65.5901 98.0101 64.1901 99.0201 62.5201 99.7401C60.6901 100.53 58.9401 101.5 57.0101 102.47C57.1501 102.93 57.2301 103.45 57.4601 103.89C57.7801 104.5 58.2601 105.03 58.5901 105.63C59.6201 107.53 59.4401 108.99 58.0301 110.7C57.7801 111 57.5701 111.32 57.3101 111.61C56.7801 112.22 56.7801 112.84 57.1601 113.53C59.3401 117.51 59.6401 121.77 58.7501 126.11C58.3501 128.05 57.5201 129.92 56.7701 131.77C55.9601 133.78 54.8501 135.62 53.5701 137.38C50.8301 141.14 48.6001 145.18 46.9701 149.55C46.0001 152.14 45.8501 154.82 46.0201 157.53C46.3201 162.39 48.2701 166.66 51.2001 170.44C52.7001 172.38 54.7101 173.88 57.0601 174.83C58.7001 175.49 60.3001 176.27 61.9101 177.01C65.5401 178.69 68.6101 181.17 71.1601 184.19C73.3801 186.82 74.8501 189.84 74.7201 193.47C74.6601 195.02 74.1801 196.35 73.3401 197.56C72.4301 198.88 69.7901 199.56 68.2901 198.97C67.1701 198.53 66.3601 197.13 66.5301 195.74C66.6001 195.15 66.8501 194.55 67.1401 194.02C67.4901 193.36 68.1301 193.07 68.8801 193.09C69.4801 193.1 69.6501 193.27 70.2601 194.54C69.9501 194.72 69.6201 194.88 69.3101 195.09C68.7001 195.5 68.5601 195.89 68.8301 196.42C69.1601 197.08 69.7201 197.35 70.3601 197.07C71.4701 196.58 72.3501 195.82 72.5101 194.56C72.6101 193.81 72.6001 193.01 72.4801 192.27C71.9401 189.07 70.5901 186.28 68.3801 183.87C65.7201 180.97 62.6201 178.78 58.9101 177.43C57.2501 176.82 55.6201 176.1 54.0001 175.39C53.3701 175.11 52.7101 174.8 52.2101 174.35C48.9001 171.36 46.2701 167.91 45.0201 163.53C43.9401 159.76 43.7201 155.96 44.3201 152.09C44.7701 149.22 45.9501 146.63 47.4301 144.17C49.2101 141.19 51.0601 138.25 52.9101 135.31C54.6401 132.55 56.1001 129.67 57.0401 126.55C57.3501 125.53 57.6501 124.45 57.6501 123.39C57.6701 119.95 57.0401 116.64 55.3401 113.59C54.6001 112.25 53.5901 111.72 52.1101 111.92C51.5801 111.99 51.0601 112.18 50.5201 112.23C49.2101 112.37 48.2401 111.79 47.9301 110.48C47.7001 109.53 47.7101 108.51 47.6801 107.52C47.6301 106.38 48.0101 105.23 47.6001 104.01ZM4.60007 56.8301C4.73007 57.5101 4.84007 58.2001 4.98007 58.8801C6.18007 64.7201 7.85007 70.4001 10.9401 75.5601C11.9701 77.2801 12.9801 79.0101 13.9901 80.7401C15.7901 83.8201 18.0601 86.5401 20.5401 89.0801C23.9001 92.5401 27.8401 95.2601 32.0801 97.4901C35.7701 99.4301 39.6901 100.85 43.9501 101.03C45.1001 101.08 46.2601 101.22 47.4101 101.17C51.1701 101.01 54.9801 101.06 58.4401 99.1701C61.6901 98.3001 64.1401 96.2001 66.4201 93.8701C68.9801 91.2601 70.8801 88.1601 72.5701 84.9601C75.5201 79.3601 76.8401 73.2701 77.8001 67.0801C77.8601 66.7001 77.8501 66.3101 77.8701 65.9301C78.1401 61.6901 78.0901 57.4601 77.8901 53.2201C77.8001 51.3001 77.9201 49.3401 77.6301 47.4501C76.9401 42.9601 76.2301 38.4801 74.8701 34.1101C73.4501 29.5201 71.7301 25.0801 69.3401 20.9301C64.9501 13.2301 58.8001 7.54011 50.3401 4.54011C44.5801 2.49011 38.7101 1.44011 32.6501 2.95011C29.9001 3.64011 27.1301 4.43011 24.5501 5.57011C20.1701 7.50011 16.6601 10.5901 13.7901 14.4401C10.3901 18.9901 7.82007 23.9401 5.90007 29.2801C4.64007 32.7901 3.79007 36.3701 3.53007 40.0801C3.32007 43.0701 3.15007 46.0501 3.46007 49.0701C3.75007 51.6801 4.08007 54.2601 4.60007 56.8301ZM52.4201 104.94C52.7101 105.47 52.9801 105.75 53.0301 106.07C53.1601 107.06 53.1801 108.06 53.3001 109.05C53.4001 109.84 54.0001 110.18 54.7001 110.4C55.3101 110.59 55.7301 110.28 56.1001 109.86C56.3001 109.63 56.5301 109.42 56.7201 109.18C57.2001 108.61 57.3301 108.01 57.0301 107.26C56.4801 105.89 55.6301 104.71 54.7401 103.55C54.3501 103.04 53.8301 102.98 53.3001 103.12C52.4301 103.35 51.5701 103.65 50.6601 103.94C50.4801 105.73 50.2801 107.39 50.1501 109.07C50.0801 110.01 50.4901 110.28 51.6501 110.15C51.7701 110.14 51.8701 109.97 51.9801 109.87C52.4501 108.36 51.5201 106.73 52.4201 104.94Z" fill="white"/>
</svg>
