<svg width="221" height="145" viewBox="0 0 221 145" fill="none" xmlns="http://www.w3.org/2000/svg">
<path d="M0.05 13.8905C0.33 10.7205 1.83 7.82048 4.45 5.45048C8.75 1.55048 15.63 -0.539524 22 0.120476C34.36 1.41048 45.62 9.58048 50.68 20.9305C53.33 26.8705 54.32 33.4805 55.28 39.8805C56.61 48.7605 57.87 57.1505 63.21 63.6605C72.84 75.3805 92.19 74.6005 105.33 67.0705C109.81 64.5005 114.02 61.2405 118.08 58.0905C123.02 54.2605 128.13 50.3005 133.87 47.4605C148.09 40.4005 165.86 41.0505 179.13 49.1105C189.67 55.5105 197.18 66.5705 199.61 78.4705C207.38 80.4105 214.2 85.0505 220.06 89.3305C228.68 95.6205 237.44 102.76 243.18 112.32C249.49 122.83 250.68 135.13 246.29 144.4L243.98 143.31C248.01 134.8 246.86 123.42 240.99 113.63C235.49 104.45 226.96 97.5205 218.56 91.3905C213.18 87.4705 206.99 83.2305 200.09 81.2405C200.43 83.7705 200.55 86.3305 200.41 88.8705C200.06 95.4205 197.04 102.04 192.75 105.71C189.93 108.12 186.64 109.21 183.24 108.87C179.31 108.47 175.88 105.96 173.82 101.99C171.41 97.3405 171.38 91.6105 173.75 87.4105C178.44 79.0905 188.99 76.6705 196.9 77.9205C194.4 67.1105 187.45 57.1505 177.83 51.3105C165.29 43.6905 148.48 43.0905 135.03 49.7605C129.52 52.4905 124.51 56.3705 119.67 60.1205C115.54 63.3205 111.26 66.6305 106.62 69.2905C99.42 73.4205 90.69 75.5705 82.67 75.1905C73.63 74.7605 66.23 71.3405 61.27 65.3005C55.48 58.2505 54.11 49.1205 52.79 40.2805C51.86 34.0505 50.89 27.6205 48.39 22.0005C43.64 11.4405 33.2 3.86048 21.73 2.66048C16.14 2.08048 9.88 3.96048 6.16 7.34048C3.78 9.50048 2.53 12.1605 2.55 15.0405L0 15.0605C0 14.6705 0.01 14.2805 0.05 13.8905ZM197.39 80.5805C197.14 80.5305 196.9 80.4905 196.65 80.4505C189.57 79.2705 180.07 81.3205 175.94 88.6405C173.98 92.1105 174.03 96.8805 176.05 100.79C177.71 103.99 180.41 106 183.46 106.31C186.19 106.59 188.75 105.73 191.06 103.75C194.85 100.52 197.49 94.6105 197.83 88.7105C197.98 86.0005 197.83 83.2805 197.39 80.5805Z" fill="white"/>
</svg>
