<svg width="123" height="124" viewBox="0 0 123 124" fill="none" xmlns="http://www.w3.org/2000/svg">
<path d="M119.72 111.72C119.11 113.51 118.59 115.28 117.91 116.99C117.29 118.56 116.54 120.08 115.81 121.6C115.28 122.7 114.43 123.21 113.18 122.93C112.13 122.69 111.06 122.52 110.03 122.22C104.8 120.66 99.58 119.06 94.34 117.51C92.79 117.05 91.2 116.75 89.64 116.35C86.81 115.63 83.98 114.9 81.16 114.15C78.71 113.5 76.27 112.78 73.82 112.13C68.83 110.8 64.04 108.91 59.16 107.26C54.27 105.61 49.6 103.44 44.79 101.62C43 100.94 41.13 100.46 39.28 99.9499C36.76 99.2499 34.22 98.6099 31.69 97.9499C31.47 97.8899 31.25 97.8099 31.02 97.7699C26.02 96.7399 21.37 94.6699 16.62 92.9099C15.25 92.3999 13.84 92.0099 12.44 91.5999C10.08 90.8999 7.68002 90.3299 5.37002 89.5099C4.16002 89.0899 3.04002 88.3399 1.99002 87.5799C1.21002 87.0199 0.950022 86.0499 1.00002 85.0899C1.08002 83.4799 1.13002 81.8599 1.38002 80.2699C1.70002 78.2199 2.20002 76.1999 2.63002 74.1699C2.83002 73.2399 2.80002 72.4399 2.19002 71.5699C0.510022 69.1699 0.610022 66.6799 2.73002 64.7199C4.16002 63.3999 4.74002 61.9899 4.89002 60.1399C5.08002 57.8499 5.66002 55.5799 5.80002 53.2899C5.96002 50.6299 7.44002 48.8499 9.37002 47.3799C10.64 46.4099 12.08 45.6099 13.53 44.9299C17.6 43.0099 21.9 41.9699 26.41 41.6499C31.78 41.2599 37.16 41.0799 42.54 40.9399C45 40.8699 47.45 40.7299 49.91 40.6099C51.83 40.5199 53.74 40.4299 55.66 40.3199C56.04 40.2999 56.41 40.1999 56.89 40.1199C57.04 39.7899 57.24 39.4699 57.33 39.1099C57.91 36.8799 58.43 34.6299 59.05 32.3999C59.52 30.6999 60.1 29.0299 60.67 27.3599C60.84 26.8599 61.18 26.4099 61.43 25.9399C61.87 25.1299 62.53 24.7299 63.47 24.6599C64.21 24.6099 65.03 24.8499 65.76 24.1699C65.74 23.0799 65.4 21.9699 65.08 20.8899C64.33 18.3399 64.69 15.8599 65.49 13.4099C65.65 12.9099 65.91 12.4099 66.21 11.9699C67.58 10.0199 69 8.09988 70.35 6.13988C71.22 4.87988 72 3.54988 72.87 2.27988C73.24 1.74988 73.45 0.969879 74.48 0.989879C74.53 1.40988 74.69 1.86988 74.61 2.26988C74.04 4.93988 74.29 7.62988 74.38 10.3099C74.47 12.9299 74.27 15.5299 73.89 18.1299C73.53 20.6299 72.36 22.5999 70.56 24.2799C70.23 24.5899 69.92 24.9199 69.62 25.2499C69.58 25.2899 69.6 25.3899 69.59 25.4699C72.01 26.8299 72.67 26.8099 72 30.5999C71.65 32.5699 71.21 34.5199 70.85 36.4899C70.65 37.6099 70.3 38.7299 70.39 40.0399C70.86 40.1999 71.34 40.4199 71.84 40.5199C74.18 40.9599 76.53 41.3499 78.87 41.7899C79.47 41.8999 80.08 42.0599 80.63 42.3099C81.03 42.4899 81.47 42.7999 81.66 43.1599C82.41 44.5899 83.09 46.0699 82.95 47.7599C82.9 48.4499 83.01 49.1899 82.8 49.8199C82.21 51.6099 83.05 52.9999 84.05 54.2399C87.04 57.9399 90.12 61.5799 93.18 65.2299C94.71 67.0499 96.27 68.8599 97.85 70.6399C100.65 73.7999 103.49 76.9399 106.3 80.0999C106.71 80.5599 107.11 81.0299 107.47 81.5299C110.02 85.1199 113 88.3199 116.12 91.3999C117.49 92.7499 118.81 94.1299 119.83 95.7899C120.51 96.8899 121.42 97.8499 122.2 98.8999C122.8 99.6999 122.89 100.54 122.44 101.49C121.92 102.6 121.54 103.77 121.05 105.01C121.36 105.56 121.72 106.14 122.03 106.75C123.02 108.71 122.48 110.27 120.48 111.28C120.24 111.42 119.98 111.58 119.72 111.72ZM5.49002 74.4599C5.17002 75.1299 4.88002 75.5199 4.79002 75.9499C4.31002 78.3599 3.86002 80.7799 3.46002 83.2099C3.38002 83.7199 3.51002 84.2799 3.59002 84.8099C3.79002 86.0499 4.45002 86.8499 5.67002 87.3099C11.29 89.4099 16.95 91.3899 22.69 93.1199C23.72 93.4299 24.75 93.7499 25.76 94.1299C31.73 96.4199 37.86 98.1699 44.02 99.8699C46.39 100.52 48.73 101.3 51.04 102.13C53.35 102.96 55.58 104.03 57.91 104.83C62.79 106.49 67.72 107.98 72.6 109.65C79.23 111.91 85.95 113.86 92.7 115.7C94.7 116.25 96.69 116.84 98.68 117.44C101.99 118.44 105.29 119.47 108.61 120.46C109.86 120.83 111.15 121.07 112.41 121.43C113.63 121.78 114.19 121.74 114.62 120.25C114.94 119.15 115.34 118.06 115.64 116.95C116.03 115.48 116.44 114.01 116.54 112.42C116.1 112.23 115.76 112.06 115.42 111.93C114.12 111.44 112.78 111.05 111.53 110.47C108.45 109.04 105.17 108.18 101.94 107.18C98.56 106.13 95.16 105.19 91.78 104.13C90.09 103.6 88.46 102.9 86.79 102.32C83.45 101.17 80.06 100.15 76.76 98.8899C70.16 96.3599 63.41 94.2099 56.92 91.3699C55.94 90.9399 54.91 90.5999 53.88 90.2699C49.92 89.0199 45.96 87.7899 41.99 86.5499C37.37 85.0999 32.72 83.7199 28.12 82.1899C22.21 80.2199 16.34 78.1299 10.45 76.1099C8.89002 75.5599 7.29002 75.0499 5.49002 74.4599ZM54.21 53.0899C53.14 53.0599 52.38 53.0299 51.62 53.0299C50.7 53.0399 49.78 53.0599 48.86 53.1099C47.41 53.1799 45.94 53.2099 44.5 53.3699C41.9 53.6599 39.32 54.0499 36.73 54.3599C32.99 54.7999 29.25 55.1999 25.51 55.6399C24.61 55.7499 23.68 55.8299 22.88 56.4899C23.28 57.1699 23.95 57.4199 24.56 57.6999C26.65 58.6799 28.75 59.6199 30.85 60.5799C33.5 61.7999 36.14 63.0499 38.8 64.2499C41.74 65.5699 44.69 66.8799 47.67 68.1299C51.08 69.5499 54.57 70.7699 57.93 72.2899C62.48 74.3399 67.23 75.9199 71.7 78.1899C72.52 78.6099 73.41 78.8799 74.27 79.2099C75.85 79.8199 77.44 80.3899 79 81.0499C85.58 83.8399 92.1 86.7499 98.72 89.4399C103.92 91.5499 109.24 93.3399 114.34 95.6899C114.97 95.9799 115.63 96.3699 116.74 96.3699C115.44 94.8399 114.35 93.5699 113.28 92.2799C107.93 85.8299 102.67 79.3099 96.97 73.1499C92.75 68.5799 88.73 63.8099 84.57 59.1899C82.77 57.1899 80.82 55.3299 78.96 53.3999C78.5 52.9199 77.97 52.7199 77.31 52.7299C74.39 52.7799 71.47 52.7999 68.55 52.8799C68.04 52.8899 67.53 53.0999 66.93 53.2399C66.38 55.3099 65.83 57.3099 65.31 59.3099C64.98 60.5699 64.72 61.8599 64.38 63.1199C64.21 63.7299 63.85 64.2399 63.18 64.4099C60.32 65.1499 57.56 65.1099 54.99 63.3999C54.01 62.7499 53.45 61.8999 53.53 60.7199C53.65 58.9599 53.8 57.1999 53.95 55.4399C54 54.7499 54.09 54.0799 54.21 53.0899ZM120.25 100.74C119.36 100.34 118.61 99.9799 117.84 99.6699C116.2 98.9999 114.53 98.4099 112.91 97.6999C107.56 95.3699 102.24 92.9599 96.87 90.6599C90.65 87.9999 84.39 85.4599 78.17 82.7899C74 81.0099 69.85 79.1699 65.75 77.2399C61.22 75.1099 56.51 73.4499 51.85 71.6499C48.63 70.3999 45.32 69.2899 42.25 67.7199C37.78 65.4299 33.07 63.7899 28.44 61.9299C25.66 60.8199 22.89 59.6599 20.1 58.5799C19.28 58.2599 18.82 57.7599 18.71 56.9299C18.58 56.0199 18.49 55.0999 18.38 54.1799C18.1 51.9399 16.47 50.7799 14.77 49.6799C14.59 49.5599 14.33 49.5399 14.1 49.5199C12.52 49.3999 11.02 49.7099 9.70002 50.5799C8.92002 51.0899 8.30002 51.7699 8.09002 52.7499C7.97002 53.3499 7.73002 53.9299 7.64002 54.5399C7.31002 56.6699 7.01002 58.7999 6.75002 60.9399C6.69002 61.4399 6.82002 61.9699 6.87002 62.4599C8.03002 62.9999 9.10002 63.4299 10.1 63.9799C13.81 66.0199 17.6 67.8899 21.61 69.2399C25.25 70.4599 28.95 71.5099 32.62 72.6599C34.89 73.3699 37.13 74.1899 39.42 74.8599C42.45 75.7399 45.4 76.7999 48.2 78.2799C49.49 78.9599 50.83 79.5599 52.17 80.1199C57.41 82.3199 62.66 84.5199 67.92 86.6599C71.55 88.1399 75.2 89.5699 78.87 90.9399C81.17 91.7999 83.53 92.5099 85.87 93.2599C91.65 95.1099 97.44 96.9199 103.2 98.8599C108 100.48 112.88 101.89 117.72 103.38C118.01 103.47 118.31 103.5 118.55 103.54C119.75 102.38 119.75 102.38 120.25 100.74ZM7.79002 65.1899C6.99002 65.2199 6.38002 65.2199 5.76002 65.2699C4.92002 65.3299 4.32002 65.7599 3.97002 66.5299C3.81002 66.8799 3.68002 67.2399 3.54002 67.5999C3.11002 68.6499 3.30002 69.5999 4.17002 70.2999C5.79002 71.5999 7.52002 72.7199 9.55002 73.3299C11.24 73.8299 12.89 74.4799 14.53 75.1099C16.54 75.8799 18.51 76.7699 20.54 77.4699C23.22 78.3999 25.96 79.1799 28.66 80.0699C32.1 81.1899 35.51 82.3699 38.96 83.4799C43.06 84.7999 47.19 86.0299 51.28 87.3699C52.81 87.8699 54.25 88.6199 55.75 89.2199C59.75 90.7999 63.76 92.3699 67.77 93.9299C68.63 94.2599 69.5 94.5699 70.37 94.8699C74.22 96.1899 78.15 97.3199 81.92 98.8599C88.56 101.58 95.5 103.36 102.26 105.7C106.91 107.31 111.65 108.64 116.34 110.15C117.74 110.6 118.91 110.19 120.05 109.49C120.6 109.15 120.69 108.49 120.43 107.86C120.06 106.95 119.41 106.34 118.49 106.01C116.47 105.27 114.47 104.47 112.42 103.82C109.42 102.85 106.37 102.06 103.38 101.07C97.91 99.2499 92.52 97.1999 86.99 95.5599C83.83 94.6199 80.78 93.3099 77.65 92.2299C73.21 90.6899 68.86 88.9899 64.6 86.9899C61.34 85.4599 57.91 84.2699 54.55 82.9299C52.7 82.1899 50.85 81.4199 48.99 80.6899C46.27 79.6199 43.56 78.5499 40.82 77.5199C38.52 76.6599 36.16 75.9299 33.88 75.0099C30.16 73.5099 26.35 72.2899 22.46 71.3599C18.84 70.4899 15.49 69.0199 12.23 67.2599C10.78 66.4199 9.19002 65.8199 7.79002 65.1899ZM21.46 54.0399C21.88 53.9499 22.25 53.8399 22.62 53.7799C24.97 53.3899 27.32 52.7599 29.68 52.6799C35.29 52.4999 40.89 52.0699 46.49 51.6699C48.86 51.4999 51.21 50.9999 53.57 50.6599C54.54 50.5199 55.04 49.9999 55.23 49.0299C55.57 47.2899 56 45.5699 56.36 43.8399C56.42 43.5699 56.32 43.2699 56.29 42.8599C54.05 42.8699 51.91 42.8699 49.77 42.9099C46.62 42.9599 43.46 42.9599 40.32 43.1399C37.25 43.3199 34.2 43.7399 31.14 44.0199C27.16 44.3899 23.17 44.7799 19.26 45.6599C17.69 46.0099 16.17 46.5699 14.64 47.0599C14.38 47.1399 14.04 47.1999 14.1 47.6399C14.31 47.6799 14.53 47.7399 14.75 47.7599C16.7 47.9199 18.17 48.9899 19.63 50.1599C20.77 51.0799 20.91 52.3799 21.18 53.6499C21.16 53.7499 21.24 53.7999 21.46 54.0399ZM62.61 62.2499C63.63 60.7399 63.77 59.0299 64.16 57.3999C65.12 53.3699 65.95 49.3099 67.09 45.3299C68.3 41.1099 69.08 36.8199 69.9 32.5199C70.05 31.7099 70.2 30.8799 69.84 30.0499C68.48 29.8699 67.17 29.8199 65.93 29.4899C64.68 29.1599 63.49 28.5999 62.14 28.6199C61.99 28.8199 61.79 28.9799 61.73 29.1899C61.5 29.9199 61.26 30.6499 61.1 31.3999C60.61 33.7299 60.18 36.0699 59.7 38.3999C58.37 44.8599 57.02 51.3199 55.7 57.7899C55.59 58.3099 55.55 58.8499 55.49 59.3899C55.43 59.8899 55.61 60.2899 56.01 60.5999C57.9 62.0699 59.97 62.8599 62.61 62.2499ZM68 50.0999C71.65 50.7799 78.36 50.9099 80.4 50.3599C80.65 48.7299 80.61 47.5899 79.99 46.5899C79.56 45.8999 79 45.0999 78.31 44.7799C75.65 43.5599 72.82 42.9699 69.95 42.8999C68.92 44.5699 68 47.9899 68 50.0999ZM68.99 23.4799C69.86 23.1399 70.58 22.6399 70.95 21.7499C71.37 20.7699 71.84 19.7899 72.08 18.7499C72.51 16.8899 73 15.0099 72.8 13.0599C72.64 11.5399 72.5 10.0099 72.31 8.48988C72.27 8.15988 72.3 7.68988 71.59 7.62988C70.04 9.60988 68.42 11.6399 66.84 13.6999C66.01 14.7799 65.83 16.0999 65.76 17.3999C65.73 17.9999 65.79 18.6499 65.96 19.2199C66.25 20.1699 66.66 21.0799 67.04 21.9999C67.08 22.0899 67.29 22.0999 67.5 22.1799C67.79 20.6699 68.06 19.1799 68.36 17.6899C68.55 16.7499 68.89 16.3599 69.4 16.3799C69.98 16.3999 70.25 17.1599 69.97 18.0899C69.63 19.2699 69.25 20.4399 68.91 21.6099C68.75 22.1999 68.53 22.7999 68.99 23.4799ZM63.24 26.8799C63.81 27.7799 64.56 27.9399 65.32 28.0599C66.45 28.2399 67.59 28.4199 68.72 28.5999C69.32 28.6899 69.96 28.8799 70.37 28.2299C70.65 27.7799 70.13 27.2199 69.2 26.8199C68.45 26.4999 67.87 26.5699 67.43 27.3099C67.36 27.4399 67.24 27.5599 67.11 27.6299C66.99 27.6899 66.83 27.6599 66.61 27.6699C66.51 27.1799 66.41 26.6899 66.3 26.1499C65.2 26.0599 64.14 25.7499 63.24 26.8799Z" fill="white"/>
</svg>
