<svg width="298" height="413" viewBox="0 0 298 413" fill="none" xmlns="http://www.w3.org/2000/svg">
<path d="M173.241 22.6314C171.111 19.3014 167.251 17.8114 164.701 14.9014C161.391 11.1214 161.871 6.26137 162.471 1.65137C162.511 1.34137 162.401 1.09137 162.221 0.911366C162.641 0.381366 161.821 -0.298634 161.331 0.141366C155.061 5.86137 150.271 15.0814 150.631 23.7414C150.951 31.3814 158.001 37.6714 165.671 37.1014C172.711 36.6014 177.211 28.8114 173.241 22.6314ZM168.591 34.0614C165.491 35.6114 161.571 34.8714 158.701 33.1514C154.671 30.7314 152.631 26.6614 152.881 22.0114C153.231 15.4914 156.201 9.26137 159.971 3.92137C159.261 8.83137 160.321 14.0314 164.071 17.4914C166.411 19.6414 169.511 21.1114 171.281 23.8114C173.541 27.2614 172.321 32.1914 168.591 34.0614Z" fill="white"/>
<path d="M229.111 68.9714C229.371 68.6814 229.261 68.0914 228.781 68.1014C222.341 68.1914 215.381 71.2914 211.391 76.4414C207.931 80.8914 207.141 88.2914 212.211 91.9414C216.741 95.2014 222.361 93.2214 224.271 88.1214C226.351 82.5414 223.431 74.1314 228.941 70.2014C229.421 69.8514 229.381 69.3414 229.111 68.9714ZM223.271 78.9215C223.061 83.2215 223.331 91.5414 217.041 91.4414C209.621 91.3214 209.731 82.0114 213.151 77.6214C216.311 73.5614 221.371 71.1315 226.331 69.7415C224.041 72.1315 223.441 75.6215 223.271 78.9215Z" fill="white"/>
<path d="M112.111 62.7713C107.761 57.4813 100.401 54.4713 93.6009 55.6813C93.3609 55.7213 93.2009 55.8813 93.1209 56.0713C92.4209 56.5513 92.2909 57.8013 93.3309 58.0913C97.8309 59.3713 97.1609 67.0213 97.2709 70.5713C97.3709 73.7513 97.7909 77.1313 99.6009 79.8313C102.981 84.8513 109.791 84.3913 113.561 80.0713C117.981 75.0313 115.971 67.4713 112.111 62.7713ZM108.541 80.8313C100.871 83.5713 99.6509 73.8113 99.5409 68.6513C99.4609 65.1013 99.2709 59.7513 96.3409 57.1613C101.791 57.6413 106.901 59.8213 110.491 64.2313C114.441 69.1013 115.841 78.2313 108.541 80.8313Z" fill="white"/>
<path d="M297.141 353.941C294.321 342.371 283.851 334.541 273.201 330.551C273.181 330.541 273.151 330.541 273.131 330.531C270.661 329.131 268.121 327.911 265.601 326.871C261.851 325.321 258.001 324.011 254.161 322.701C253.841 322.591 253.561 322.621 253.321 322.741C253.121 314.861 245.711 308.541 237.871 306.951C237.361 306.851 236.951 307.071 236.701 307.411C237.011 303.681 237.331 299.951 237.681 296.221C238.191 290.941 238.991 285.621 239.421 280.301C239.421 280.261 239.431 280.221 239.431 280.191C239.551 278.661 239.641 277.131 239.681 275.601C240.761 275.181 241.701 274.321 242.251 273.191C243.501 270.601 242.141 267.941 240.581 265.751C246.921 263.251 250.421 254.861 246.611 248.821C245.261 246.691 243.281 245.251 241.051 244.491C241.771 241.801 241.681 238.781 241.891 236.021C242.141 232.831 242.381 229.651 242.631 226.461C243.121 220.191 243.341 213.871 244.691 207.711C244.711 207.601 244.721 207.501 244.711 207.411C248.981 207.981 253.391 206.891 256.981 203.581C260.111 200.681 261.741 196.511 261.071 192.271C260.581 189.151 258.771 185.741 256.011 183.951C258.861 183.201 261.141 180.561 260.781 177.411C260.471 174.671 258.421 172.721 255.951 172.071C259.581 168.371 261.881 162.791 259.441 157.861C257.641 154.231 253.571 151.891 249.671 152.441C251.811 147.371 250.121 141.021 245.751 137.541C240.341 133.241 232.501 134.361 227.321 138.431C225.551 131.991 218.501 127.681 211.921 129.251C212.361 125.991 212.791 122.711 213.141 119.441C213.241 119.331 213.261 119.161 213.181 119.021C213.501 116.001 213.741 112.971 213.851 109.941C213.861 109.621 213.651 109.391 213.391 109.271C213.611 106.901 209.401 106.061 207.631 105.751C206.791 105.601 205.941 105.521 205.091 105.501C205.581 102.911 206.621 100.661 208.141 98.1414C208.661 97.2714 207.491 96.1114 206.731 96.9214C204.621 99.1914 203.471 102.371 203.241 105.531C200.911 105.701 198.631 106.321 196.511 107.351C196.141 107.181 195.611 107.351 195.551 107.891C194.691 114.631 194.311 121.421 194.061 128.221C189.951 125.711 185.111 128.091 183.611 132.251C182.251 130.201 180.241 128.571 177.651 128.801C175.711 128.971 174.041 130.161 173.321 131.811C172.341 130.891 171.141 130.221 169.811 130.041C170.511 124.831 171.201 119.621 171.901 114.411C174.071 98.1814 176.941 81.8514 178.031 65.5114C178.051 65.1614 177.831 64.9014 177.541 64.7814C177.101 62.8114 174.831 62.0314 173.131 61.5614C170.541 60.8514 167.881 60.3614 165.211 60.0514C165.611 57.7114 166.151 55.3914 166.261 52.9914C166.401 49.8214 166.511 45.6514 165.081 42.7514C164.681 41.9314 163.421 42.2314 163.361 43.1214C163.251 44.8014 163.681 46.4414 163.821 48.1214C163.981 50.0314 163.991 51.9414 163.871 53.8514C163.751 55.7014 163.511 57.5614 163.121 59.3814C163.091 59.5314 163.051 59.6814 163.021 59.8314C159.151 59.4714 153.641 59.1014 151.971 63.3114C151.841 63.6514 151.901 63.9614 152.071 64.2214C151.981 64.3314 151.921 64.4814 151.891 64.6514C149.131 83.8714 148.411 103.521 147.761 122.901C147.691 125.031 147.631 127.161 147.571 129.291C144.551 125.891 139.031 127.411 137.501 131.521C134.791 128.601 130.261 127.631 126.601 129.451C126.621 129.111 126.641 128.781 126.661 128.441C126.901 123.621 127.091 118.791 127.221 113.961C127.281 111.541 127.321 109.131 127.321 106.711C127.321 104.871 127.781 102.801 126.511 101.341C126.441 101.261 126.291 101.241 126.221 101.321C126.181 101.361 126.151 101.401 126.111 101.451C125.061 99.3414 121.341 98.3614 119.451 97.9914C118.561 97.8214 117.621 97.7014 116.651 97.6514C116.851 93.8214 116.371 89.7014 114.611 86.6314C114.101 85.7414 112.741 86.2114 112.921 87.2414C113.321 89.5714 114.191 91.7614 114.481 94.1314C114.631 95.3114 114.681 96.4814 114.681 97.6514C112.011 97.7814 109.321 98.4614 107.271 99.9314C107.041 100.101 106.951 100.341 106.971 100.591C106.881 100.651 106.811 100.731 106.751 100.831C106.561 100.931 106.421 101.131 106.401 101.441C105.951 109.971 106.101 118.531 106.171 127.071C103.611 124.501 99.4909 123.591 96.0809 124.901C92.4209 126.301 90.0909 129.921 89.8309 133.731C85.8209 132.651 81.2109 132.921 78.2409 136.131C76.1309 138.411 75.4209 141.591 76.4109 144.381C69.3209 143.991 61.7409 145.171 56.9309 150.891C53.4909 154.981 52.1909 162.671 56.4709 166.631C53.6209 168.711 51.3309 172.191 51.9509 175.751C52.4509 178.601 54.8609 181.091 57.6609 181.291C55.6809 185.281 54.1109 189.841 56.5209 193.981C57.9109 196.371 60.0509 197.321 62.3909 197.481C61.9409 203.911 62.1909 210.451 62.3109 216.891C62.3709 220.131 62.4509 223.361 62.5409 226.591C62.6209 229.461 62.3309 232.791 62.9409 235.651C59.0409 234.491 54.6509 235.721 52.6809 240.051C50.5109 244.811 54.3909 250.701 59.3709 250.061C53.4509 251.181 50.7809 259.891 54.1709 264.711C56.2409 267.651 59.6409 268.791 62.9809 268.491C62.6809 274.531 62.8009 280.611 62.8209 286.661C62.8309 290.751 62.7609 294.861 62.7809 298.961C60.0009 296.771 55.6709 296.691 53.2509 299.671C52.7309 300.311 52.3709 301.011 52.1409 301.741C44.4009 301.731 36.6109 302.841 29.1309 304.801C22.7909 306.461 16.5409 308.921 11.2809 312.911C2.50092 319.571 -1.03908 329.831 0.260919 340.181C0.230919 349.701 4.32092 358.781 10.5309 366.141C18.5809 375.711 29.9609 381.771 41.4009 386.351C67.7809 396.901 96.0709 403.631 124.141 407.751C151.591 411.781 179.731 413.371 207.391 410.721C220.691 409.441 233.921 407.101 246.731 403.281C258.851 399.671 271.421 395.051 281.721 387.551C292.041 380.011 300.371 367.211 297.141 353.941ZM203.221 107.511C203.251 108.021 203.301 108.531 203.381 109.031C203.501 109.811 204.771 109.711 204.771 108.921C204.771 108.411 204.801 107.921 204.831 107.451C206.231 107.501 212.791 108.371 209.871 110.301C206.371 112.611 201.231 111.031 197.861 108.941C199.581 108.171 201.361 107.681 203.221 107.511ZM212.121 111.401C211.691 113.531 211.331 115.681 211.011 117.831C210.081 117.251 209.201 116.541 208.501 115.801C207.931 115.201 207.441 114.521 207.051 113.791C206.921 113.551 206.821 113.301 206.721 113.061C208.551 112.941 210.741 112.501 212.121 111.401ZM204.891 113.061C205.231 114.601 206.641 116.241 207.641 117.171C208.631 118.101 209.661 118.701 210.811 119.081C210.471 121.391 210.181 123.711 209.891 126.031C207.501 124.691 205.131 123.341 202.841 121.821C201.731 121.081 200.611 120.361 199.611 119.461C198.301 118.281 197.871 117.051 197.161 115.501C197.081 115.331 196.931 115.231 196.751 115.191C196.801 113.391 196.841 111.591 196.861 109.791C199.041 111.781 201.971 112.891 204.891 113.061ZM196.021 153.891C197.911 157.321 201.651 159.991 205.351 160.851C204.751 161.191 204.361 161.731 203.771 162.081C202.971 162.561 201.921 162.671 201.001 162.701C200.171 162.721 196.261 162.601 195.871 161.361C195.891 161.281 195.911 161.191 195.911 161.091C195.981 158.681 196.011 156.291 196.021 153.891ZM199.991 156.071C198.061 154.111 197.241 151.901 196.081 149.501C196.071 149.471 196.041 149.461 196.031 149.431C196.031 148.121 196.031 146.811 196.031 145.501C196.281 145.101 196.281 144.571 196.031 144.231C196.031 143.811 196.031 143.381 196.031 142.961C196.811 143.791 197.781 144.501 198.551 145.151C201.081 147.251 203.861 149.081 206.831 150.491C206.361 153.461 205.731 156.611 205.611 159.611C203.511 158.811 201.621 157.731 199.991 156.071ZM202.041 145.871C200.911 145.011 195.701 141.581 196.531 139.741C196.691 139.391 196.401 139.001 196.051 138.931C196.071 137.461 196.091 135.991 196.121 134.521C196.161 132.881 196.211 131.241 196.271 129.601C197.001 130.561 197.841 131.411 198.221 131.801C201.021 134.721 204.531 137.091 208.381 138.381C207.951 141.801 207.521 145.211 207.091 148.631C207.071 148.811 207.041 149.001 207.011 149.191C205.321 148.151 203.641 147.081 202.041 145.871ZM202.401 133.331C201.201 132.361 195.961 128.111 196.781 126.321C196.911 126.041 196.691 125.701 196.411 125.601C196.491 123.321 196.581 121.051 196.651 118.771C197.421 119.981 198.671 121.001 199.761 121.791C202.811 124.001 206.271 125.861 209.731 127.361C209.411 130.031 209.101 132.701 208.771 135.351C208.691 135.961 208.621 136.561 208.541 137.171C206.381 136.071 204.321 134.871 202.401 133.331ZM173.101 134.731C173.671 135.711 175.201 135.211 174.991 134.051C174.421 131.011 178.341 130.201 180.311 131.541C181.801 132.561 182.641 134.241 183.261 135.881C183.601 136.771 185.171 136.441 185.111 135.491C184.791 130.351 189.551 127.621 194.031 129.301C193.971 131.001 193.921 132.691 193.871 134.391C193.781 137.471 193.681 140.571 193.611 143.671C192.161 143.201 191.051 141.991 190.941 140.271C190.861 139.121 189.291 138.651 188.851 139.871C187.381 143.901 182.291 144.131 180.321 140.331C179.941 139.591 178.601 139.561 178.391 140.471C177.291 145.391 171.821 146.801 168.161 143.491C168.121 143.451 168.071 143.431 168.031 143.411L168.671 138.591C168.961 136.411 169.251 134.231 169.541 132.051C171.021 132.511 172.201 133.171 173.101 134.731ZM173.551 82.9914C170.711 81.5314 168.171 79.7314 166.031 77.2814C164.021 74.9814 162.951 72.5014 161.771 69.8414C163.561 70.4214 165.431 70.7414 167.341 70.7214C169.221 70.7014 173.541 69.9914 175.941 68.2414C175.021 73.1214 174.251 78.0514 173.551 82.9914ZM162.561 62.0814C162.541 62.3414 162.541 62.6014 162.571 62.8714C162.621 63.3514 163.161 63.7614 163.631 63.7714C163.731 63.7714 163.841 63.7714 163.941 63.7814C164.401 63.7914 164.881 63.3414 164.831 62.8714C164.851 62.6814 164.871 62.4914 164.891 62.3014C168.441 62.6814 175.801 63.7414 174.801 66.0014C174.231 67.2914 170.771 68.0414 169.561 68.2514C167.811 68.5614 166.031 68.5314 164.281 68.2414C160.601 67.6314 157.311 65.8514 154.141 63.9714C155.761 61.3914 159.741 61.8214 162.561 62.0814ZM153.561 64.9914C155.401 66.6214 157.491 68.0314 159.741 69.0514C160.581 75.8314 167.031 82.1314 173.371 84.3314C172.891 87.7914 172.451 91.2714 172.011 94.7414C163.251 90.0814 157.071 83.2814 154.191 73.4814C154.031 72.9314 153.531 72.7414 153.101 72.8314C153.271 70.2214 153.421 67.6014 153.561 64.9914ZM152.911 75.7714C155.531 84.7314 162.921 93.1514 171.841 96.1014C171.271 100.741 170.711 105.371 170.121 109.991C166.041 107.661 162.301 105.231 159.101 101.681C157.511 99.9114 156.111 97.9814 154.931 95.9114C153.811 93.9614 153.181 91.6814 151.921 89.8514C152.261 85.1714 152.601 80.4714 152.911 75.7714ZM151.601 94.3114C153.001 97.5614 155.551 100.721 157.631 103.001C160.921 106.601 165.241 109.851 169.941 111.321C169.831 112.141 169.731 112.951 169.621 113.761C168.951 118.791 168.281 123.811 167.601 128.841C163.821 126.381 160.391 123.781 157.491 120.251C156.031 118.471 154.761 116.561 153.691 114.521C152.711 112.661 152.241 110.281 150.891 108.691C150.831 108.621 150.761 108.571 150.681 108.541C150.951 103.801 151.271 99.0614 151.601 94.3114ZM149.561 156.601C149.551 154.531 149.551 152.471 149.561 150.401C149.561 149.851 149.571 149.301 149.571 148.761C152.141 154.861 156.961 160.571 163.371 161.781C163.371 161.871 163.381 161.971 163.381 162.061C161.631 164.151 158.831 164.691 156.201 164.251C154.941 164.041 153.761 163.641 152.571 163.171C152.021 162.961 151.481 162.721 150.941 162.501C150.891 162.481 150.741 162.431 150.571 162.371C150.571 162.321 150.571 162.271 150.561 162.221C150.521 161.911 150.231 161.591 149.921 161.511C149.831 161.481 149.741 161.461 149.641 161.431C149.581 161.411 149.521 161.401 149.461 161.401C149.241 159.951 149.561 157.531 149.561 156.601ZM163.361 160.461C160.061 159.261 157.321 157.191 155.141 154.361C152.531 150.971 151.421 147.081 149.631 143.311C149.651 141.541 149.671 139.771 149.701 138.001C149.731 136.431 149.761 134.871 149.801 133.301C150.871 135.761 152.471 138.081 154.041 139.881C156.951 143.211 160.881 145.801 165.221 146.761C165.061 147.941 164.901 149.121 164.751 150.301C164.311 153.541 163.421 157.101 163.361 160.461ZM155.241 138.301C152.321 134.871 151.421 131.181 149.951 127.091C150.081 122.631 150.241 118.171 150.431 113.721C150.451 113.291 150.471 112.861 150.491 112.421C150.941 113.491 151.511 114.521 151.981 115.411C153.121 117.581 154.501 119.651 156.071 121.541C159.071 125.161 163.041 128.451 167.411 130.271L166.311 138.471C166.011 140.751 165.701 143.021 165.401 145.301C161.491 143.711 158.031 141.581 155.241 138.301ZM126.441 131.901C126.561 131.881 126.681 131.831 126.801 131.761C130.471 129.441 135.421 130.881 137.211 134.861C137.731 136.011 139.301 135.271 139.171 134.161C138.551 129.031 145.171 127.491 147.491 131.781C147.401 135.521 147.341 139.251 147.291 142.991C144.651 145.101 140.621 145.301 138.211 142.621C137.831 142.201 137.111 142.131 136.691 142.541C133.561 145.571 128.841 145.191 125.951 142.061C125.911 142.021 125.871 141.981 125.831 141.951C126.051 138.591 126.261 135.251 126.441 131.901ZM123.781 160.041C124.201 159.761 124.341 159.331 124.281 158.931C124.391 158.771 124.471 158.581 124.491 158.351C124.921 153.831 125.291 149.311 125.621 144.781C128.891 147.531 134.071 147.481 137.401 144.771C140.251 147.021 144.551 147.091 147.261 144.851C147.241 147.171 147.211 149.491 147.201 151.811C147.191 154.221 147.201 156.631 147.211 159.051C147.221 160.301 146.851 162.361 147.681 163.471C148.281 164.271 149.071 164.401 149.671 164.101C154.711 167.051 161.661 168.331 165.571 163.031C165.941 162.521 165.821 162.001 165.481 161.661C166.511 158.321 166.541 154.351 166.991 150.941L167.801 144.841C171.371 148.711 177.321 147.411 179.631 143.041C182.361 145.971 186.951 145.811 189.521 142.841C190.341 144.391 191.761 145.531 193.531 145.901C193.431 150.931 193.421 155.961 193.671 160.961C193.691 161.611 194.151 161.991 194.651 162.081C194.911 163.841 198.271 164.601 199.821 164.721C201.561 164.851 205.101 164.581 206.141 162.781C206.611 163.061 207.251 162.981 207.491 162.281C208.781 158.421 208.771 153.821 209.281 149.781C209.361 149.141 209.441 148.501 209.521 147.861C213.451 150.431 218.501 150.261 222.231 147.521C224.181 149.951 227.281 150.991 230.291 150.231C231.131 155.331 234.721 159.491 239.571 161.071C235.251 165.001 236.001 172.201 241.231 175.021C238.551 177.071 236.951 180.231 236.881 183.581C233.161 180.691 228.381 178.951 223.721 180.421C219.581 181.731 216.521 185.371 216.191 189.591C212.411 188.141 208.081 189.131 205.301 192.101C203.641 189.971 201.201 188.221 198.401 188.911C196.791 189.311 195.501 190.451 195.001 191.871C190.661 187.561 182.841 188.131 179.071 192.831C174.381 184.431 162.211 183.791 156.631 191.891C153.151 190.771 149.451 192.071 147.251 194.861C140.841 185.781 127.841 184.811 120.111 192.761C118.791 190.281 116.251 188.671 113.371 188.251C109.411 187.681 105.741 189.481 102.511 191.631C101.061 188.421 96.7309 187.981 94.5509 190.611C90.1909 184.381 81.8809 181.671 74.6909 184.121C74.9109 180.471 73.0409 176.931 69.9109 175.091C73.9809 172.661 75.0809 167.241 72.3209 163.391C74.7409 162.851 76.6609 160.811 76.9909 158.261C85.0509 159.231 93.0609 153.211 94.0309 145.071C97.0809 145.371 99.8509 143.331 100.641 140.461C102.281 141.501 104.361 141.681 106.211 140.921C106.221 142.151 106.221 143.381 106.231 144.611L106.281 151.811C106.291 153.931 106.031 156.191 106.691 158.221C106.851 158.711 107.411 158.951 107.831 158.791C112.071 162.931 118.861 163.261 123.781 160.041ZM122.161 158.231C122.151 158.321 122.161 158.411 122.171 158.491C117.781 161.001 112.551 160.361 108.491 157.411C108.821 155.631 108.631 153.761 108.621 151.951C108.611 150.661 108.601 149.381 108.601 148.091C109.361 149.361 110.391 150.501 111.321 151.331C114.351 154.031 118.351 155.651 122.311 156.391C122.281 156.711 122.261 157.031 122.231 157.361C122.201 157.641 122.171 157.931 122.161 158.231ZM113.871 150.991C112.611 150.071 111.471 149.001 110.611 147.701C109.641 146.231 109.581 144.841 109.081 143.231C109.001 142.961 108.791 142.801 108.571 142.751C108.561 140.691 108.541 138.631 108.531 136.581C109.751 138.421 111.401 140.091 112.791 141.261C115.721 143.741 119.351 145.441 123.171 145.891C122.941 148.961 122.691 152.031 122.431 155.091C119.401 154.121 116.451 152.881 113.871 150.991ZM113.811 139.681C112.491 138.471 111.311 137.111 110.351 135.591C109.651 134.481 109.201 133.211 108.491 132.121C108.491 131.521 108.481 130.931 108.481 130.331C108.461 128.421 108.461 126.501 108.451 124.581C109.881 126.521 111.841 128.291 112.981 129.291C114.921 130.981 117.021 132.541 119.221 133.871C120.421 134.601 122.311 135.931 123.861 135.871C123.671 138.821 123.471 141.771 123.251 144.711C119.721 143.731 116.541 142.191 113.811 139.681ZM124.301 128.291C124.201 130.291 124.081 132.281 123.961 134.281C122.931 133.621 121.661 133.171 120.671 132.551C119.041 131.541 117.481 130.411 115.981 129.221C114.551 128.091 113.171 126.881 111.951 125.521C111.111 124.581 107.941 121.041 108.631 119.661C108.801 119.311 108.691 118.941 108.421 118.771C108.411 116.861 108.381 114.961 108.341 113.051C109.761 115.781 112.141 118.311 114.171 120.041C117.051 122.491 120.681 124.381 124.451 124.981C124.401 126.071 124.351 127.181 124.301 128.291ZM125.211 106.051C125.091 108.631 125.001 111.221 124.911 113.801C124.901 113.981 124.901 114.171 124.891 114.351C123.371 113.541 122.001 112.521 120.811 111.181C119.581 109.791 119.041 108.231 118.301 106.701C120.591 106.621 123.611 106.251 125.221 104.931C125.231 105.301 125.231 105.681 125.211 106.051ZM114.591 99.7714C114.551 100.461 114.501 101.151 114.431 101.841C114.351 102.761 115.871 103.091 116.061 102.151C116.211 101.381 116.341 100.561 116.441 99.7214C117.311 99.7514 118.171 99.8614 119.021 100.031C119.821 100.191 122.851 100.721 123.211 101.501C123.121 102.211 123.031 102.911 122.941 103.621L122.001 103.871C121.461 104.121 120.671 104.181 120.091 104.291C118.591 104.561 117.051 104.721 115.531 104.601C112.761 104.381 110.241 103.331 108.351 101.371C110.451 100.731 112.391 99.9814 114.591 99.7714ZM116.231 106.701C116.541 108.901 118.211 111.211 119.631 112.651C121.101 114.141 122.871 115.281 124.841 115.941C124.741 118.491 124.641 121.051 124.521 123.601C121.031 122.371 117.851 120.781 115.061 118.221C113.651 116.931 112.371 115.461 111.311 113.871C110.191 112.191 109.601 110.251 108.511 108.581C108.431 108.451 108.331 108.371 108.221 108.311C108.161 106.591 108.091 104.871 107.991 103.161C110.061 105.451 113.051 106.591 116.231 106.701ZM57.9709 192.401C56.0709 188.441 58.4109 184.041 60.2609 180.571C60.6209 179.891 60.1309 178.711 59.2009 179.021C55.6809 180.211 53.2709 176.221 54.0409 173.151C54.6109 170.891 56.1009 169.191 57.5909 167.491C58.4209 167.961 59.1809 166.911 58.6409 166.171C58.6409 166.171 58.6409 166.161 58.6309 166.161C58.6609 165.931 58.4809 165.721 58.2609 165.651C56.7009 163.431 55.6609 161.221 55.9109 158.351C56.1709 155.351 57.7809 152.681 60.0309 150.721C65.0209 146.391 71.8809 146.061 78.1509 146.651C79.1709 146.751 79.5209 145.551 79.0209 144.841C77.1209 142.191 78.3309 138.451 80.8609 136.691C83.7309 134.691 87.4209 135.071 90.5409 136.191C91.1409 136.401 92.0209 135.931 91.9709 135.221C91.7109 131.711 93.4509 128.281 96.7609 126.821C100.111 125.341 103.501 126.471 106.161 128.631C106.161 129.151 106.171 129.671 106.171 130.201C106.181 133.281 106.201 136.361 106.221 139.441C106.171 139.451 106.121 139.461 106.061 139.491C103.931 140.381 101.911 139.631 100.631 137.791C100.161 137.121 98.8409 137.561 98.9009 138.401C99.1309 141.351 96.3209 143.791 93.4309 142.831C92.7909 142.621 92.0709 143.091 92.0409 143.771C91.6909 151.481 83.9609 157.711 76.3209 156.021C75.4809 155.831 74.8409 156.411 74.9309 157.261C75.2209 159.901 72.5309 161.981 70.0609 161.261C68.8909 160.921 68.1209 162.461 69.1209 163.181C73.5809 166.371 72.1609 172.891 66.8409 174.051C65.8709 174.261 65.6709 175.851 66.7309 176.101C70.8709 177.101 73.5209 181.331 72.3409 185.481C72.0909 186.381 72.9809 187.181 73.8409 186.771C80.9309 183.361 89.9509 186.311 93.6609 193.231C94.0909 194.031 95.3509 193.981 95.6409 193.081C96.5909 190.121 100.421 190.501 100.841 193.611C100.961 194.501 102.021 194.621 102.621 194.191C105.321 192.261 108.471 190.301 111.911 190.331C114.911 190.351 117.921 192.031 118.661 195.081C118.901 196.051 120.081 196.191 120.661 195.451C127.501 186.781 140.831 187.871 146.241 197.461C146.761 198.371 147.911 198.171 148.321 197.301C149.831 194.141 153.611 192.981 156.731 194.341C157.171 194.531 157.791 194.291 158.031 193.891C162.911 185.751 174.561 186.891 177.921 195.691C178.211 196.441 179.511 196.531 179.871 195.801C182.431 190.631 190.061 189.531 193.871 193.941C194.191 194.311 194.591 194.381 194.951 194.271C194.981 194.391 195.021 194.511 195.061 194.621C195.241 195.071 196.051 194.911 196.021 194.421C195.851 192.141 197.831 190.291 200.121 190.731C202.061 191.111 203.381 192.661 204.321 194.291C204.711 194.971 205.651 195.051 206.111 194.391C208.471 190.981 213.141 189.991 216.681 192.171C217.521 192.691 218.401 191.961 218.301 191.061C217.801 186.701 221.421 182.871 225.581 182.171C230.071 181.421 234.401 183.841 237.451 186.931C238.171 187.661 239.561 187.081 239.301 185.991C238.281 181.821 240.251 177.641 244.101 175.771C244.901 175.381 244.851 174.031 243.951 173.791C237.911 172.171 237.021 164.331 242.691 161.531C243.701 161.031 243.271 159.621 242.261 159.501C236.891 158.831 232.571 154.281 232.261 148.851C232.211 148.031 231.501 147.481 230.701 147.841C228.001 149.061 224.881 148.041 223.411 145.481C223.071 144.891 222.271 144.691 221.741 145.171C218.571 148.071 213.961 148.371 210.431 145.931C210.211 145.781 209.991 145.731 209.791 145.741C210.181 142.661 210.561 139.581 210.951 136.501C211.161 134.831 211.381 133.161 211.611 131.481C211.671 131.471 211.731 131.461 211.801 131.441C218.101 129.591 224.861 134.101 225.621 140.601C225.711 141.371 226.801 141.671 227.331 141.151C231.601 136.931 238.881 135.131 244.081 138.841C248.691 142.131 250.041 149.041 246.641 153.621C246.031 154.451 247.081 155.551 247.951 155.091C251.791 153.051 256.581 155.611 257.951 159.541C259.621 164.321 256.581 169.211 252.921 172.071C252.051 172.751 252.911 173.881 253.801 173.791C256.111 173.551 258.501 175.181 258.921 177.531C259.441 180.461 256.611 182.811 253.881 182.791C253.751 182.791 253.651 182.821 253.561 182.871C253.501 182.861 253.441 182.831 253.371 182.821C252.531 182.651 251.781 183.761 252.651 184.291C255.931 186.281 258.391 188.731 258.971 192.701C259.541 196.581 257.741 200.261 254.711 202.651C247.711 208.151 238.411 204.821 233.561 198.221C233.011 197.481 231.691 197.991 231.691 198.881C231.701 202.311 228.831 205.081 225.421 205.211C222.241 205.331 219.451 203.481 217.461 201.171C216.931 200.561 215.931 200.801 215.671 201.541C214.401 205.131 209.431 206.591 206.511 204.021C205.921 203.501 204.631 203.651 204.681 204.661C205.021 211.221 195.921 210.981 191.521 209.951C187.321 208.961 183.481 206.731 182.301 202.351C182.111 201.631 181.171 201.831 181.141 202.491C180.661 202.381 180.121 202.551 179.891 203.131C177.571 208.911 169.561 208.451 168.021 202.381C167.801 201.511 166.641 201.261 166.121 202.021C163.271 206.191 158.861 209.971 153.561 210.091C148.921 210.201 144.321 207.141 143.471 202.461C143.331 201.671 142.041 201.321 141.641 202.121C140.581 204.251 137.741 204.811 136.081 202.991C135.521 202.371 134.281 202.701 134.301 203.611C134.371 206.891 132.121 210.051 128.751 210.551C124.901 211.121 121.801 207.691 121.521 204.121C121.441 203.161 120.201 203.231 119.731 203.781C117.301 206.641 112.611 205.491 111.051 202.381C110.871 202.031 110.441 201.991 110.151 202.151C109.821 202.101 109.471 202.221 109.221 202.591C107.161 205.701 104.171 208.521 100.261 208.811C96.2209 209.111 92.2709 205.811 92.8209 201.601C92.9509 200.581 91.4609 200.141 90.9409 200.981C88.8809 204.281 84.6309 203.761 83.2409 200.181C82.9509 199.421 81.8809 199.521 81.4709 200.081C77.4309 205.711 69.1209 201.991 70.1709 195.291C70.2709 194.681 69.5309 194.031 68.9409 194.241C65.2409 195.551 60.1009 196.841 57.9709 192.401ZM68.0209 196.681C68.0309 203.971 76.9809 207.461 82.1209 202.461C84.1209 205.471 88.0709 206.061 90.8709 204.041C91.6109 207.551 94.8009 210.321 98.4509 210.841C103.431 211.551 107.941 208.191 110.601 204.231C112.571 207.191 116.871 208.031 119.901 206.161C120.941 209.881 124.281 212.851 128.371 212.641C132.321 212.441 135.461 209.281 136.191 205.551C138.101 206.471 140.461 206.211 142.081 204.851C143.781 209.101 148.161 211.921 152.781 212.141C158.411 212.411 163.311 209.011 166.721 204.761C169.761 210.731 178.591 210.941 181.621 204.501C185.051 213.441 204.991 216.231 206.691 206.561C210.261 208.301 214.841 207.111 216.981 203.701C219.661 206.271 223.331 207.951 227.101 207.131C230.101 206.481 232.551 204.251 233.471 201.421C236.121 204.271 239.581 206.291 243.221 207.121C243.211 207.141 243.201 207.161 243.191 207.181C240.891 212.831 240.901 219.321 240.431 225.321L239.681 234.881C239.451 237.831 238.851 241.021 239.091 243.991C235.841 243.471 232.351 244.221 229.691 246.191C228.841 242.821 225.271 240.521 221.741 240.351C216.661 240.111 212.701 244.021 209.541 247.661C206.831 243.321 200.581 243.051 197.501 247.231C193.621 244.231 187.781 244.701 184.481 248.311C180.221 240.571 169.031 239.941 164.081 247.651C160.661 242.221 152.481 241.561 148.161 246.111C145.251 243.111 140.511 242.571 136.941 244.661C134.901 239.241 129.721 235.151 123.781 235.071C117.971 234.991 112.711 238.781 110.471 244.001C107.601 241.301 103.131 240.741 99.7409 242.821C98.3409 238.771 93.0409 237.771 90.3409 240.981C88.0309 236.361 83.9109 232.431 78.6109 231.821C73.8909 231.281 69.0309 233.671 66.9109 237.871C66.3009 237.321 65.6309 236.851 64.9309 236.471C65.5109 233.511 64.9709 230.211 64.8809 227.211C64.8309 225.721 64.7909 224.221 64.7509 222.731C67.3909 224.611 71.7309 223.051 72.6309 219.501C73.2609 216.971 72.2209 214.171 70.4009 212.381C68.9309 210.931 66.3509 209.841 64.5309 211.121C64.4909 206.561 64.4509 201.981 64.1409 197.451C65.4409 197.341 66.7609 197.051 68.0209 196.681ZM64.5909 216.481C64.5709 215.381 64.5509 214.281 64.5409 213.181C64.7709 213.211 65.0109 213.141 65.2409 212.931C66.6609 211.611 68.7109 213.121 69.6509 214.321C70.7509 215.711 71.3309 217.651 70.8109 219.381C70.1409 221.641 66.7309 222.871 64.7009 221.591C64.6709 219.891 64.6309 218.191 64.5909 216.481ZM64.2909 266.101C63.9209 265.871 63.4009 265.921 63.1709 266.321C60.6109 266.671 57.9609 265.971 56.1609 263.851C52.2709 259.241 56.1209 252.351 61.2409 250.951C61.7909 250.801 61.7609 249.971 61.1609 249.931C60.6709 249.891 60.1909 249.911 59.7309 249.971C60.2209 249.871 60.7209 249.721 61.2209 249.491C61.9409 249.161 61.5009 248.091 60.7709 248.221C56.0609 249.061 52.2809 244.291 55.0609 240.061C57.9309 235.711 63.6309 236.971 66.4509 240.571C66.9509 241.211 68.0609 240.941 68.2909 240.191C69.6709 235.581 74.7709 233.121 79.3609 234.151C84.2309 235.241 87.5609 239.441 89.2409 243.901C89.5809 244.811 90.9609 244.571 91.2309 243.751C92.5109 239.921 97.8109 240.521 97.9009 244.681C97.9209 245.561 98.9809 246.251 99.7109 245.551C102.601 242.761 107.651 243.161 109.871 246.621C110.341 247.351 111.601 247.451 111.871 246.471C113.321 241.291 118.121 237.191 123.631 237.251C129.121 237.311 133.911 241.401 135.251 246.631C135.461 247.441 136.421 247.771 137.061 247.221C140.201 244.521 144.961 245.251 147.331 248.561C147.761 249.161 148.711 248.961 149.071 248.431C152.111 244.051 159.471 244.261 162.201 248.881C162.701 249.731 163.801 249.521 164.211 248.901C164.501 249.061 164.881 249.031 165.121 248.671C169.861 241.491 180.311 242.581 183.411 250.591C183.681 251.281 184.721 251.251 185.081 250.681C187.631 246.681 193.641 245.991 196.951 249.441C197.371 249.871 198.231 249.921 198.551 249.321C200.891 244.971 206.611 245.381 208.351 249.981C208.661 250.801 209.701 250.601 210.141 250.081C212.711 247.051 215.821 243.321 219.951 242.551C223.521 241.891 228.181 244.241 227.691 248.341C227.551 249.501 229.011 249.691 229.621 248.981C233.531 244.431 242.031 244.921 245.021 250.301C247.961 255.591 244.271 262.811 238.541 264.071C237.701 264.261 237.471 265.231 237.961 265.861C238.831 266.991 239.771 268.161 240.201 269.541C240.491 270.491 240.271 272.461 239.411 273.341C239.141 273.191 238.771 273.241 238.661 273.611C238.651 273.661 238.641 273.711 238.621 273.751C238.241 273.811 237.791 273.701 237.261 273.351C236.201 272.651 235.011 274.061 235.821 275.011C238.831 278.561 236.851 284.391 232.821 286.261C227.391 288.781 221.611 283.761 220.391 278.681C220.121 277.541 218.691 277.601 218.251 278.561C216.651 282.031 211.931 282.341 208.941 280.641C205.561 278.711 203.761 274.931 202.381 271.461C202.121 270.811 201.181 270.721 200.711 271.151C196.951 274.531 191.391 274.651 187.401 271.681C187.091 271.001 186.071 270.661 185.531 271.481C183.301 274.871 179.431 277.031 175.291 276.421C171.081 275.791 168.241 272.531 166.501 268.881C166.231 268.311 165.461 268.671 165.521 269.231C165.541 269.381 165.571 269.531 165.591 269.681C165.571 269.631 165.551 269.591 165.531 269.541C164.951 268.331 163.151 269.271 163.691 270.481C165.361 274.231 160.231 276.731 157.261 275.541C154.281 274.341 152.581 271.151 151.491 268.321C151.121 267.351 149.811 267.701 149.481 268.471C147.021 274.141 139.041 273.941 136.971 268.081C136.671 267.221 135.541 266.851 134.971 267.701C127.231 279.211 110.061 278.191 103.731 265.841C103.341 265.071 102.331 265.091 101.841 265.741C98.0009 270.801 89.7209 270.361 86.1709 265.231C85.6609 264.491 84.6109 264.951 84.3309 265.611C81.3509 272.531 71.3509 269.601 72.1409 262.221C72.2509 261.191 70.6609 260.611 70.1609 261.561C69.0309 263.851 66.7709 265.461 64.2909 266.101ZM233.771 316.261C230.751 315.411 227.541 316.081 225.061 318.051C223.851 314.311 220.131 311.731 216.051 311.761C211.391 311.791 207.721 315.071 205.531 318.961C204.961 318.121 204.191 317.431 203.231 316.941C201.211 315.911 199.741 316.351 197.721 316.901C195.101 317.621 193.281 314.891 190.461 315.221C188.271 315.481 186.321 316.681 184.581 318.021C181.361 312.941 175.561 309.711 169.451 310.201C163.221 310.701 157.831 314.981 155.651 320.761C152.051 312.781 141.431 311.561 135.921 318.141C132.991 315.151 128.021 315.081 124.851 317.731C119.751 307.321 105.751 304.901 97.4609 313.141C95.5209 311.471 92.7709 311.191 90.5509 312.371C88.9909 306.381 82.0009 303.571 76.8709 307.441C74.1609 303.711 68.5209 303.051 65.1909 306.271C65.4109 299.781 65.1709 293.241 65.1309 286.751C65.1009 280.561 65.1709 274.341 64.7909 268.151C66.8309 267.651 68.7509 266.631 70.2209 265.171C70.9809 268.381 73.4409 271.141 76.8509 271.751C80.3309 272.371 83.6509 270.701 85.5509 267.911C89.9409 272.631 97.9709 272.661 102.581 268.231C106.021 273.871 112.041 277.771 118.721 278.171C125.301 278.561 131.651 275.501 135.731 270.451C139.031 275.871 146.631 276.271 150.411 271.231C152.261 274.921 155.461 278.591 159.871 278.171C163.291 277.841 166.331 274.781 166.081 271.461C167.431 275.121 170.991 277.821 174.841 278.501C179.301 279.291 183.901 277.301 186.611 273.751C190.901 276.751 196.731 276.651 200.991 273.681C202.831 277.961 205.631 282.391 210.391 283.571C213.531 284.351 216.861 283.581 218.981 281.341C221.441 286.861 227.911 291.111 233.861 288.261C234.831 287.801 235.701 287.161 236.441 286.411C236.101 289.471 235.831 292.541 235.511 295.571C235.121 299.301 234.761 303.031 234.451 306.771C234.211 309.901 233.711 313.131 233.771 316.261ZM53.9709 303.171C54.1709 302.971 54.2209 302.641 54.1409 302.351C54.3009 301.841 54.5509 301.351 54.9009 300.911C56.8809 298.461 60.7009 298.811 62.7709 300.881C62.7909 302.791 62.8309 304.701 62.9209 306.601C62.9009 307.581 63.9009 307.951 64.5809 307.651C64.7509 307.811 65.0309 307.881 65.2309 307.681C68.2509 304.691 73.9209 305.391 75.8309 309.251C76.0909 309.781 76.8209 309.901 77.2509 309.511C81.6109 305.591 88.4509 307.971 88.8809 314.011C88.9409 314.801 89.8309 315.421 90.5109 314.791C92.3809 313.071 95.1109 313.271 96.7309 315.231C97.0509 315.611 97.7809 315.691 98.1309 315.311C105.841 306.831 119.441 309.321 123.611 319.991C123.911 320.761 124.951 320.631 125.371 320.091C127.871 316.871 132.941 317.271 135.191 320.511C135.581 321.071 136.491 320.891 136.821 320.391C141.401 313.561 151.301 314.951 154.101 322.571C154.481 323.591 155.761 323.161 156.001 322.301C156.301 322.341 156.621 322.211 156.761 321.851C158.831 316.531 163.801 312.481 169.591 312.141C175.301 311.801 180.711 315.111 183.341 320.111C183.661 320.731 184.451 320.841 184.971 320.411C186.661 319.031 188.871 317.311 191.181 317.321C193.161 317.331 193.871 319.291 195.641 319.641C197.111 319.931 198.131 318.881 199.441 318.531C201.741 317.921 203.951 319.541 204.391 321.801C204.601 322.881 206.071 322.851 206.451 321.911C207.891 318.271 210.751 314.751 214.811 314.041C218.651 313.371 223.081 315.981 223.301 320.111C223.361 321.201 224.561 321.601 225.261 320.761C227.661 317.871 231.861 317.211 235.071 319.111C236.231 319.791 237.391 318.061 236.231 317.361C236.111 317.291 235.991 317.231 235.871 317.161C236.391 314.401 236.431 311.491 236.611 308.671C236.731 308.831 236.911 308.961 237.181 309.011C245.001 310.601 252.751 316.971 250.771 325.771C249.971 329.331 247.411 332.411 243.701 333.031C240.071 333.631 236.261 332.061 234.711 328.631C234.291 327.691 233.081 328.011 232.721 328.781C231.651 331.061 227.641 330.811 226.851 328.431C226.551 327.541 225.001 327.141 224.751 328.311C223.981 331.821 221.461 335.111 217.681 335.571C214.051 336.011 210.681 333.411 210.191 329.821C210.051 328.831 208.711 328.731 208.201 329.451C204.051 335.221 195.651 334.241 192.761 327.831C192.441 327.131 191.301 327.031 190.911 327.731C189.441 330.361 186.071 330.881 183.801 328.951C183.281 328.511 182.411 328.901 182.221 329.491C179.651 337.701 168.581 337.551 165.631 329.701C165.401 329.091 164.401 329.401 164.451 329.991C164.101 329.771 163.661 329.761 163.291 330.171C160.371 333.381 155.241 333.761 152.051 330.701C151.581 330.251 150.681 330.161 150.321 330.831C146.361 338.011 136.361 338.591 131.881 331.551C131.491 330.941 130.761 330.761 130.181 331.231C123.051 337.021 112.411 333.991 109.521 325.211C109.281 324.481 108.371 324.011 107.731 324.631C105.151 327.111 101.391 327.721 98.2109 325.991C97.5509 325.631 96.8909 325.871 96.5809 326.551C94.9309 330.241 89.4709 330.401 87.2409 327.261C86.8209 326.671 85.9009 326.881 85.5409 327.381C80.3609 334.671 68.9709 331.091 68.9609 322.121C68.9609 321.201 67.9009 320.621 67.1709 321.261C63.0709 324.851 56.5309 326.491 52.2709 322.171C50.5309 320.411 49.4309 317.791 50.1809 315.321C51.0409 312.471 53.6909 310.441 56.6709 310.681C57.9209 310.781 58.1309 309.061 57.0709 308.611C54.9609 307.731 53.7109 305.361 53.9709 303.171ZM230.321 350.861C230.321 351.021 230.341 351.161 230.391 351.281C186.931 363.511 140.691 365.511 96.3509 356.851C84.6509 354.561 72.2809 352.101 62.3909 345.041C62.6209 344.871 62.7709 344.601 62.7909 344.221C63.0909 338.061 63.3909 331.921 63.8009 325.771C64.9209 325.331 66.0009 324.761 67.0009 324.081C67.7209 328.161 70.4909 331.761 74.5709 333.081C78.8709 334.471 83.5109 332.891 86.4609 329.641C89.7309 332.831 95.5209 332.021 98.0509 328.281C101.371 329.661 105.081 329.301 108.001 327.221C111.911 336.001 122.691 339.131 130.671 333.571C136.031 340.501 146.571 340.401 151.521 333.051C155.531 335.931 161.331 335.591 164.741 331.781C164.851 331.661 164.921 331.531 164.971 331.401C168.561 339.501 180.011 339.381 183.721 331.401C186.311 332.791 189.581 332.371 191.651 330.281C195.421 336.251 203.601 337.091 208.611 332.291C210.021 335.691 213.591 337.991 217.371 337.801C221.411 337.591 224.661 334.681 226.171 331.081C228.101 332.811 231.191 332.951 233.261 331.371C231.401 337.621 230.441 344.371 230.321 350.861ZM8.87092 318.201C19.4309 306.811 37.1009 304.901 51.8309 303.531C51.7909 305.451 52.5409 307.391 53.8609 308.821C48.4609 310.341 46.0809 317.381 49.5409 322.271C52.5409 326.501 57.2809 327.511 61.7409 326.431C60.9309 332.271 60.4809 338.211 60.5009 344.101C60.5009 344.561 60.7209 344.891 61.0309 345.081C60.8009 345.371 60.7309 345.781 61.0709 346.081C69.0009 353.071 79.3909 355.581 89.4809 357.791C100.721 360.251 112.101 362.041 123.551 363.151C146.671 365.391 170.051 364.841 193.051 361.571C206.091 359.721 218.981 356.961 231.651 353.361C232.511 353.121 232.681 352.211 232.381 351.591C232.501 351.431 232.581 351.231 232.601 350.981C233.111 344.761 233.941 338.701 234.981 332.581C237.011 334.441 239.821 335.391 242.661 335.281C247.001 335.111 250.581 332.401 252.231 328.421C252.741 327.201 253.051 326.001 253.211 324.831C253.281 324.871 253.351 324.901 253.421 324.931C266.821 329.501 282.591 335.121 288.251 349.481C293.911 363.841 283.461 377.971 271.411 384.871C265.011 388.541 257.971 390.901 250.911 392.941C243.471 395.091 235.931 396.891 228.321 398.351C213.091 401.271 197.611 402.831 182.111 403.171C151.051 403.871 119.991 399.851 89.8109 392.641C75.1009 389.121 60.5309 384.901 46.2509 379.911C33.2709 375.371 19.6209 369.541 10.7509 358.561C1.67092 347.321 -1.74908 329.651 8.87092 318.201ZM280.971 385.421C271.121 392.831 258.841 397.371 247.161 400.941C235.271 404.571 223.011 406.921 210.661 408.301C184.631 411.211 158.091 410.061 132.161 406.791C105.471 403.421 79.1409 397.341 53.6609 388.701C40.4009 384.201 26.7309 379.001 16.2609 369.361C11.9709 365.411 8.30092 360.611 5.72092 355.321C11.3609 364.491 20.3409 371.141 30.1609 375.911C44.3509 382.811 59.9909 387.171 75.1609 391.311C107.311 400.101 140.551 405.481 173.931 405.601C190.431 405.661 206.961 404.421 223.241 401.661C231.491 400.261 239.681 398.471 247.761 396.271C255.261 394.231 262.801 391.951 269.761 388.441C281.941 382.291 293.141 370.511 292.101 355.911C291.601 348.901 288.311 343.101 283.661 338.401C289.011 342.331 293.351 347.531 295.021 354.041C298.171 366.391 290.491 378.251 280.971 385.421Z" fill="white"/>
<path d="M94.3009 220.741C94.2509 217.111 91.0209 213.751 87.3109 214.711C83.9709 214.631 81.0709 217.611 80.9109 220.981C80.7309 224.791 84.3509 227.721 87.9609 227.711C91.7209 227.691 94.3509 224.341 94.3009 220.741ZM87.5609 225.611C85.1009 225.441 82.7609 223.401 82.9309 220.811C83.0709 218.741 84.4909 217.181 86.2709 216.351C86.4409 216.741 86.8209 217.011 87.3609 216.831C93.2109 214.891 93.9809 226.071 87.5609 225.611Z" fill="white"/>
<path d="M123.061 217.761C122.911 217.761 122.791 217.821 122.711 217.901C122.621 217.641 122.381 217.421 122.001 217.391C118.491 217.101 115.781 221.021 115.721 224.201C115.641 227.821 118.691 230.431 122.191 230.511C125.691 230.591 128.871 228.221 129.011 224.571C129.121 221.161 126.601 217.771 123.061 217.761ZM122.301 228.401C119.941 228.371 117.831 226.791 117.781 224.311C117.731 221.541 119.731 219.851 122.131 219.041C122.391 218.951 122.561 218.771 122.661 218.561C122.711 218.621 122.781 218.681 122.881 218.711C127.811 220.401 128.511 228.481 122.301 228.401Z" fill="white"/>
<path d="M167.901 224.111C167.341 220.901 164.241 218.231 161.021 218.601C160.931 218.361 160.691 218.171 160.421 218.231C156.611 219.061 152.821 222.411 153.091 226.581C153.371 230.891 158.101 232.901 161.921 232.131C165.671 231.361 168.581 228.061 167.901 224.111ZM160.601 230.231C157.381 230.441 154.241 228.091 155.341 224.591C156.011 222.451 157.761 221.271 159.501 220.091C159.631 220.241 159.801 220.351 160.011 220.371C162.901 220.571 165.571 221.431 165.941 224.751C166.271 227.891 163.501 230.041 160.601 230.231Z" fill="white"/>
<path d="M209.991 223.671C208.321 221.081 203.881 219.921 201.421 221.901C197.471 222.111 194.911 226.151 195.871 229.921C196.951 234.191 202.271 235.911 206.081 234.411C210.121 232.831 212.461 227.481 209.991 223.671ZM204.701 232.731C202.101 233.401 198.671 232.291 197.821 229.491C197.141 227.251 198.311 224.711 200.271 223.551C200.291 224.071 200.881 224.441 201.391 224.051C203.781 222.221 207.751 222.271 208.811 225.661C209.731 228.611 207.611 231.991 204.701 232.731Z" fill="white"/>
<path d="M238.851 225.121C238.531 221.671 234.491 218.241 231.031 219.811C228.291 220.281 225.971 222.521 225.761 225.541C225.501 229.361 229.161 232.741 232.921 232.461C236.521 232.201 239.171 228.631 238.851 225.121ZM232.901 230.391C230.401 230.661 227.851 228.471 227.761 225.941C227.681 223.871 229.241 222.161 231.111 221.391C231.131 221.391 231.151 221.401 231.171 221.401C233.841 221.481 236.751 222.271 236.861 225.531C236.941 227.801 235.201 230.141 232.901 230.391Z" fill="white"/>
<path d="M85.9309 289.531C85.7109 286.041 82.6609 283.431 79.3209 283.311C79.1809 283.121 78.9209 283.001 78.6209 283.111C75.1709 284.371 72.331 286.921 73.051 290.911C73.651 294.221 76.5709 296.751 80.0009 296.281C83.2809 295.831 86.1409 292.911 85.9309 289.531ZM78.981 294.341C76.611 294.231 75.0109 292.031 74.8709 289.801C74.7409 287.571 76.171 286.091 77.841 284.931C77.991 285.131 78.211 285.261 78.521 285.251C81.031 285.131 83.521 286.711 83.911 289.341C84.331 292.051 81.5809 294.451 78.981 294.341Z" fill="white"/>
<path d="M110.301 286.591C109.921 286.591 109.641 286.781 109.471 287.031C106.441 287.451 103.861 289.991 103.841 293.221C103.821 296.791 107.151 299.891 110.671 299.811C114.071 299.731 116.931 296.661 117.071 293.311C117.221 289.581 113.911 286.551 110.301 286.591ZM110.921 297.751C108.521 297.981 106.151 296.081 105.801 293.681C105.441 291.231 107.361 289.081 109.591 288.371C109.731 288.491 109.931 288.571 110.171 288.581C112.571 288.681 114.751 290.261 114.991 292.751C115.231 295.091 113.281 297.531 110.921 297.751Z" fill="white"/>
<path d="M150.661 293.611C150.251 290.151 147.101 287.861 143.801 287.851C143.711 287.681 143.551 287.561 143.331 287.571C139.711 287.731 136.801 291.111 137.071 294.741C137.341 298.391 140.871 301.431 144.531 301.101C148.131 300.761 151.091 297.221 150.661 293.611ZM143.731 299.101C141.211 298.951 138.981 296.581 139.031 294.061C139.081 291.861 140.531 290.251 142.331 289.261C142.511 289.611 142.881 289.881 143.371 289.831C145.861 289.561 148.401 291.381 148.651 293.941C148.911 296.611 146.451 299.251 143.731 299.101Z" fill="white"/>
<path d="M190.071 295.331C189.811 292.541 187.401 290.291 184.731 290.391C184.671 290.361 184.601 290.351 184.531 290.351C180.951 290.281 177.531 293.001 177.311 296.721C177.111 300.121 180.181 303.491 183.661 303.281C187.411 303.051 190.411 298.941 190.071 295.331ZM188.001 296.521C187.691 299.061 185.121 301.931 182.371 301.131C180.241 300.511 178.811 297.991 179.401 295.861C179.861 294.171 181.141 292.931 182.651 292.141C182.841 292.501 183.211 292.751 183.681 292.601C186.271 291.801 188.311 293.891 188.001 296.521Z" fill="white"/>
<path d="M224.161 298.361C223.971 295.831 221.531 293.151 218.961 293.391C218.951 293.181 218.841 292.971 218.621 292.911C215.281 292.041 211.841 294.741 211.431 298.091C210.991 301.711 214.141 305.151 217.761 305.181C221.251 305.201 224.411 301.841 224.161 298.361ZM222.031 299.271C221.711 301.621 219.231 303.591 216.861 302.981C214.601 302.401 212.811 299.951 213.491 297.591C214.011 295.791 215.461 294.731 217.121 294.221C216.801 294.811 217.211 295.691 218.031 295.501C220.391 294.961 222.351 296.881 222.031 299.271Z" fill="white"/>
<path d="M83.9909 336.571C82.1909 334.161 77.8009 332.761 75.3809 335.071C75.2409 335.201 75.1609 335.381 75.1409 335.571C73.0709 336.841 72.3609 339.871 73.3109 342.221C74.6909 345.651 78.5709 347.291 81.8409 345.341C84.8109 343.571 86.1609 339.491 83.9909 336.571ZM81.6609 342.911C77.1309 347.431 72.1409 338.961 76.2109 336.501C78.1209 335.841 79.8509 335.561 81.5809 336.941C83.5509 338.511 83.3709 341.201 81.6609 342.911Z" fill="white"/>
<path d="M121.551 343.451C120.871 341.731 119.511 340.341 117.691 339.891C116.511 339.601 115.191 339.721 114.361 340.481C114.271 340.441 114.171 340.421 114.051 340.441C110.321 340.941 107.911 345.091 109.081 348.651C110.231 352.151 114.581 353.781 117.911 352.541C121.481 351.211 122.901 346.871 121.551 343.451ZM116.151 350.951C113.771 351.251 111.151 349.841 110.701 347.361C110.301 345.131 111.651 342.801 113.631 341.791C113.591 342.401 114.301 342.731 114.811 342.361C117.271 340.581 119.741 342.981 120.031 345.511C120.321 348.051 118.811 350.621 116.151 350.951Z" fill="white"/>
<path d="M166.771 346.571C166.161 343.501 163.241 341.021 160.171 341.411C160.121 341.221 159.981 341.051 159.731 341.061C156.051 341.111 152.871 344.241 153.141 348.021C153.411 351.761 156.971 354.821 160.721 354.371C164.371 353.921 167.521 350.321 166.771 346.571ZM160.111 352.421C157.481 352.491 154.971 350.171 154.961 347.481C154.951 345.161 156.561 343.301 158.601 342.451C158.661 342.941 159.121 343.441 159.691 343.341C162.171 342.941 164.531 344.611 164.851 347.151C165.191 349.821 162.731 352.351 160.111 352.421Z" fill="white"/>
<path d="M210.761 345.441C210.311 342.151 207.081 340.311 204.081 341.071C204.071 340.901 203.961 340.741 203.731 340.711C200.401 340.371 197.441 342.631 197.541 346.181C197.641 350.011 201.141 352.251 204.721 351.961C208.131 351.681 211.271 349.121 210.761 345.441ZM203.581 349.951C198.471 349.591 198.361 342.911 202.681 341.681C201.981 342.351 202.781 343.641 203.811 343.221C206.201 342.241 208.991 343.661 208.761 346.481C208.551 348.991 205.791 350.111 203.581 349.951Z" fill="white"/>
</svg>
