<svg width="62" height="104" viewBox="0 0 62 104" fill="none" xmlns="http://www.w3.org/2000/svg">
<path d="M12.8627 31.8499C12.5619 31.8481 12.4043 31.8621 12.2446 31.8535C11.3234 31.7705 10.9256 31.4598 10.8131 30.619C10.7307 29.9797 10.7711 29.3183 10.7451 28.674C10.7289 28.3181 10.6728 27.9601 10.5955 27.3147C10.217 27.819 9.96894 28.0791 9.80385 28.3773C9.41664 29.0921 9.1073 29.8511 8.70778 30.5557C8.2889 31.296 7.75991 31.3428 7.14543 30.7166C6.38629 29.9387 5.66903 29.1231 4.89863 28.3462C4.45341 27.8921 4.36221 27.4011 4.63011 26.867C4.94589 26.2379 5.22265 25.5555 5.67379 25.0392C6.92003 23.6188 7.87096 21.9523 9.33869 20.7165C9.81772 20.3169 10.2854 19.8558 10.586 19.3074C10.2649 18.9672 10.0063 19.1148 9.76602 19.2155C7.97073 19.9812 6.18053 20.7407 4.39244 21.5228C3.59092 21.8716 3.04933 21.7834 2.55131 21.0675C1.99476 20.2716 1.5128 19.4239 0.965263 18.5422C1.54953 17.6284 2.41229 17.2061 3.30791 16.832C3.95817 16.5646 4.60842 16.2972 5.24532 16.0083C5.47943 15.9026 5.68984 15.7251 5.88193 15.5947C5.84819 15.1723 5.55947 15.1185 5.30451 15.0616C4.66764 14.9252 4.01755 14.8295 3.38068 14.693C3.0735 14.6238 2.77337 14.5086 2.48765 14.4261C2.62145 13.002 2.7861 12.5167 3.49898 11.4612C5.1608 11.8189 6.87516 11.8884 8.6815 11.9101C8.62738 11.0869 8.03089 10.7143 7.68892 10.2114C7.28843 9.62865 6.86138 9.06525 6.44453 8.4896C6.06775 7.97847 5.44679 7.64774 5.2537 6.91619C5.43349 6.77551 5.57847 6.62657 5.75525 6.51451C7.27384 5.58048 8.79241 4.64646 10.3172 3.71756C10.3866 3.67171 10.528 3.72726 10.7051 3.73995C11.2187 4.98762 11.4922 6.39832 12.5062 7.65842C12.8379 5.4966 12.7676 3.46675 12.7218 1.39502C13.5224 1.09733 14.2852 1.24537 15.0208 1.16328C15.7565 1.08119 16.4975 0.692349 17.3389 1.19641C17.6165 2.58973 17.3889 4.16386 18.1166 5.51735C18.7144 6.02594 19.4115 5.65234 20.1038 5.83497C20.3131 6.07167 20.5604 6.35038 20.8507 6.66499C20.7186 7.07368 20.5855 7.47112 20.4381 7.89818C20.5855 7.89649 20.6848 7.92739 20.7492 7.88767C22.1964 7.03936 23.6424 6.17981 25.0957 5.33663C25.3707 5.18186 25.6929 5.10798 25.9669 5.00434C26.9084 5.85118 27.535 6.85064 28.236 8.5865C28.0989 9.06368 27.8337 9.44445 27.3214 9.60887C26.6168 9.84135 26.1688 10.3914 25.6449 10.8575C25.0853 11.3664 24.7079 11.8818 24.9892 12.7077C25.1592 13.1917 24.8622 13.5356 24.4277 13.7442C23.9013 14.0006 23.2968 14.1505 22.9439 14.6865C22.9888 15.0455 23.2703 15.083 23.5293 15.1224C24.2255 15.2253 24.9308 15.3047 25.632 15.4015C26.1889 15.4713 26.7122 15.6065 26.9667 16.327C26.713 16.8315 26.4381 17.4116 26.1272 17.9722C25.9713 18.2469 25.7611 18.4867 25.5846 18.7235C22.1996 17.5937 20.7941 17.4288 19.1457 18.0057C19.4604 18.2161 19.6912 18.4395 19.9565 18.5465C21.6292 19.2039 23.305 19.8326 24.9869 20.4665C25.3925 20.6178 25.8368 20.6976 26.218 20.8907C26.4803 21.0263 26.6764 21.3039 26.9564 21.5683C26.1217 23.0204 25.3216 24.4183 24.5898 25.6967C24.5578 26.4482 24.9068 26.9051 25.2291 27.3189C26.192 28.5779 27.0302 29.8989 27.7897 31.2893C28.2276 32.0899 28.8923 32.7684 29.3956 33.5406C30.1156 34.6282 30.8468 35.7149 31.4481 36.8697C32.7609 39.3851 34.3098 41.7549 35.9005 44.087C37.8115 46.8727 39.5611 49.7522 41.3966 52.5787C42.8746 54.8584 44.4762 57.0647 45.9706 59.3372C47.6981 61.9804 49.3552 64.6582 51.0561 67.3208C52.8105 70.0694 54.5977 72.8038 56.3204 75.5779C57.1761 76.9654 57.9082 78.4263 58.6934 79.8484C58.8774 80.1781 59.0195 80.5455 59.2515 80.8426C60.1507 82.0278 60.5788 83.4532 61.3043 84.7218C61.8335 85.6505 61.8102 86.6167 61.3446 87.5256C60.9748 88.2446 60.5784 88.9829 60.0241 89.5481C59.2012 90.3978 58.2881 91.1932 57.3051 91.8473C54.6341 93.6263 51.775 95.0305 48.7607 96.1706C46.0756 97.1908 43.373 98.1445 40.5952 98.9007C38.3493 99.5191 36.1704 100.37 33.9256 100.999C31.9404 101.555 29.9202 101.978 27.899 102.389C24.4855 103.082 21.0281 103.365 17.5519 103.508C16.1275 103.566 14.7313 103.44 13.348 103.149C11.7047 102.806 10.7467 101.904 10.5472 100.192C10.3267 98.255 10.1154 96.2943 10.161 94.3506C10.3232 88.0012 10.6113 81.6634 10.8471 75.3131C10.9548 72.3317 11.045 69.3462 11.1925 66.3669C11.3125 63.8212 11.4948 61.2755 11.6771 58.7299C12.0747 53.2615 12.5071 47.8012 12.5004 42.3175C12.4928 39.9248 12.6284 37.5478 12.8603 35.1679C12.9735 34.1314 13.0999 33.0539 12.8627 31.8499ZM52.9956 92.7277C54.0924 92.1372 55.1829 91.5417 56.2858 90.9564C57.2589 90.4392 58.0288 89.6905 58.8161 88.946C59.3889 88.3962 59.7312 87.7477 59.9342 87.0038C60.2345 85.9053 59.7554 84.9666 58.6487 84.7809C56.8386 84.476 55.0285 84.171 53.1531 84.3823C48.1787 84.9472 43.346 86.1801 38.535 87.4621C35.8165 88.1847 33.1383 89.0965 30.4776 90.0125C27.3495 91.0889 24.2852 92.3014 21.2561 93.647C18.4007 94.9091 15.84 96.5932 13.4077 98.4985C12.8418 98.9399 12.574 99.5364 12.6708 100.208C12.7821 100.976 13.342 101.442 14.0792 101.621C14.7121 101.775 15.3531 101.956 15.9959 101.973C17.7828 102.03 19.5728 102.059 21.3616 102.014C23.7562 101.956 26.1059 101.476 28.4402 101.014C29.8723 100.734 31.2939 100.342 32.7249 100.051C34.8025 99.6344 36.8563 99.1464 38.8565 98.4477C40.4445 97.8932 42.0336 97.3499 43.6237 96.8179C46.8807 95.7244 50.0503 94.4855 52.9956 92.7277ZM40.3555 53.3401C39.4869 53.4566 38.8146 53.9131 38.1217 54.3317C35.0916 56.1537 32.352 58.3528 29.8166 60.7946C27.4793 63.0488 25.2303 65.3973 22.8355 67.5828C20.7543 69.4797 18.7161 71.4125 16.9036 73.5749C15.581 75.1495 14.3434 76.7846 13.0823 78.4105C12.5048 79.1535 12.2366 79.9883 12.1908 80.9565C12.0346 84.2087 12.0996 87.4584 12.2269 90.7083C12.2345 90.9118 12.2065 91.1581 12.5648 91.2285C12.6822 91.0877 12.8384 90.9377 12.9414 90.7642C14.5439 88.1156 16.5002 85.7306 18.5488 83.4226C21.3761 80.2176 24.3029 77.1059 27.6174 74.3796C30.3314 72.1488 32.9929 69.8433 35.7448 67.6545C38.3221 65.6003 41.0009 63.6618 43.6171 61.6609C44.0411 61.3398 44.4086 60.9613 44.812 60.6023C44.7151 60.2933 44.689 60.0744 44.5822 59.9024C43.3688 57.9056 42.1504 55.9149 40.9157 53.9314C40.7811 53.7051 40.5555 53.5379 40.3555 53.3401ZM31.1402 39.1031C30.3708 39.6136 29.679 40.0434 29.024 40.5041C27.9227 41.2877 26.8624 42.1472 25.7281 42.8827C23.7641 44.1511 21.8638 45.4932 20.0743 46.99C18.3747 48.4165 16.8074 49.9843 15.4156 51.7295C13.8809 53.6461 13.2514 55.7776 13.2683 58.2092C13.2801 60.1591 13.1045 62.1086 12.974 64.0542C12.8391 65.8923 12.6356 67.7252 12.4844 69.5705C12.4605 69.8618 12.3242 70.2255 12.7515 70.4259C12.869 70.3475 13.0162 70.2834 13.1255 70.1773C13.4379 69.8775 13.7504 69.5776 14.0249 69.2357C16.2078 66.6038 18.646 64.2159 21.1787 61.9275C23.4652 59.8592 25.7702 57.8064 28.0752 55.7536C30.6264 53.4805 33.2494 51.3088 36.1618 49.5028C36.5154 49.2787 36.7971 48.9532 37.128 48.6687C37.0003 48.334 36.9465 48.0609 36.8119 47.8346C35.1322 45.0964 33.4474 42.3643 31.7576 39.6384C31.6558 39.4602 31.4417 39.3544 31.1402 39.1031ZM47.6631 64.9497C46.3625 65.4221 45.2207 66.0165 44.1767 66.8064C43.5668 67.2631 42.9825 67.7515 42.351 68.159C40.3798 69.4109 38.4856 70.7582 36.69 72.2499C34.6042 73.977 32.5072 75.7052 30.7047 77.7306C28.9735 79.6703 27.267 81.6304 25.6466 83.6624C23.4579 86.4139 21.3501 89.2433 19.2229 92.046C19.1066 92.1981 19.0826 92.4271 18.9565 92.7785C19.4066 92.6763 19.7166 92.6546 19.9896 92.5397C21.5416 91.9033 23.0771 91.2116 24.6364 90.5916C26.7538 89.7521 28.8796 88.9401 31.0136 88.1558C32.1598 87.7312 33.1255 87.1353 33.9267 86.174C35.0696 84.8024 36.2793 83.4761 37.5402 82.2132C39.8742 79.8629 42.4073 77.7615 45.2996 76.1048C47.1311 75.058 48.9071 73.9027 50.6974 72.7802C51.1481 72.5021 51.6664 72.2804 51.8463 71.7144C51.3738 70.5425 48.7438 66.2549 47.6631 64.9497ZM12.2295 96.6348C13.4607 96.2082 16.0823 94.7513 16.7348 94.1434C16.9697 93.9241 17.1963 93.6772 17.3881 93.422C18.7082 91.6378 20.0099 89.8382 21.3423 88.0643C23.0991 85.731 24.8487 83.3814 26.6845 81.1035C27.8692 79.6318 29.2559 78.3181 30.4519 76.8455C32.6663 74.1258 35.3784 71.9972 38.1705 69.9353C39.2105 69.1628 40.3254 68.4629 41.27 67.5797C42.1891 66.7271 43.181 65.9871 44.2233 65.2994C44.7628 64.9397 45.3413 64.6333 45.8798 64.2624C46.1781 64.0545 46.4241 63.7719 46.6845 63.522C46.5252 62.7874 46.2312 62.252 45.5416 61.8536C44.778 62.2444 43.957 62.5666 43.2591 63.0537C40.8917 64.681 38.4863 66.2663 36.2595 68.0627C33.4781 70.2994 30.8444 72.7216 28.1728 75.1018C26.8788 76.2542 25.6546 77.4854 24.4171 78.6952C23.6003 79.4877 22.8142 80.3059 22.0219 81.119C21.3379 81.8147 20.6466 82.494 19.9995 83.2205C18.8073 84.551 17.6838 85.9492 16.4659 87.248C15.1541 88.6344 14.1641 90.2476 13.1199 91.826C12.1643 93.2603 11.9807 94.8192 12.2295 96.6348ZM27.3513 33.2791C26.4096 31.0314 21.4412 23.6953 19.5206 21.659C19.3883 21.5176 19.1671 21.4578 18.7255 21.2246C19.3861 22.3458 19.8774 23.2325 20.4228 24.0917C21.0011 24.999 21.6325 25.8676 22.2877 26.8078C20.9571 28.4795 19.5327 29.876 17.3007 30.34C16.0933 28.6489 15.9552 26.5003 14.762 24.7796C14.6581 25.0043 14.5816 25.0962 14.5787 25.1872C14.5288 26.5981 14.5127 28.0061 14.4392 29.4078C14.401 30.1541 14.4478 30.8986 14.0555 31.6196C13.8129 32.0607 13.7847 32.6701 13.789 33.2028C13.8184 36.5577 13.4854 39.922 13.7645 43.2776C13.7824 43.4688 13.8616 43.649 13.9544 43.9754C15.2224 43.0919 16.0518 41.9466 17.1273 41.0688C18.2193 40.1838 19.2342 39.2036 20.32 38.3135C21.4477 37.3857 22.5938 36.4733 23.78 35.6254C24.913 34.8162 26.1108 34.0921 27.3513 33.2791ZM37.9245 49.6645C36.3437 50.2354 35.0982 51.1169 33.8814 52.0015C30.417 54.5199 27.1691 57.2913 24.0556 60.2267C23.1896 61.0406 22.2806 61.8186 21.4455 62.6582C19.9681 64.1557 18.5226 65.6901 17.0832 67.2297C15.752 68.6519 14.4393 70.0895 13.1266 71.527C12.6784 72.0147 12.3604 72.559 12.3355 73.2645C12.2985 74.5098 12.2216 75.753 12.1846 76.9983C12.1839 77.1742 12.3143 77.3555 12.4122 77.6134C13.0905 77.0997 13.4288 76.4686 13.8246 75.9061C15.3157 73.7665 17.0284 71.8114 18.9339 70.0378C20.3952 68.6721 21.8811 67.327 23.2726 65.8824C24.5866 64.5184 26.0133 63.2693 27.4093 61.9944C28.4438 61.0409 29.4967 60.1027 30.5691 59.1911C31.8469 58.1082 33.1492 57.0459 34.4711 56.0101C35.6601 55.0712 36.8943 54.1907 38.0895 53.257C38.5492 52.893 38.9452 52.4553 39.3731 52.0545C39.0853 51.0988 38.5904 50.4166 37.9245 49.6645ZM30.3282 37.5756C29.651 36.3991 28.9876 35.4313 28.1853 34.5551C27.906 34.6025 27.6665 34.5897 27.4937 34.6844C26.0885 35.4949 24.6442 36.2522 23.3292 37.1796C22.0092 38.1131 20.7877 39.191 19.5775 40.2678C18.1263 41.5589 16.6187 42.7925 15.3572 44.2937C14.6633 45.1264 13.8598 45.9404 13.6771 47.0228C13.4348 48.4395 13.4065 49.8995 13.5797 51.3304C14.064 51.4124 14.2085 51.0763 14.4198 50.8478C15.2478 49.9919 16.045 49.1103 16.9048 48.2913C17.7288 47.5151 18.6904 46.8742 19.4591 46.0519C20.6248 44.8031 22.0391 43.9067 23.4617 43.0379C25.6476 41.7159 27.6088 40.1131 29.5566 38.4889C29.8303 38.2605 30.0271 37.9369 30.3282 37.5756ZM52.8449 72.9305C51.7497 72.8686 51.0335 73.4026 50.309 73.8467C49.2523 74.5017 48.2357 75.2212 47.2376 75.956C44.849 77.7213 42.5262 79.5829 40.0914 81.2786C38.2482 82.5646 36.9281 84.3488 35.328 85.8685C35.135 86.0501 34.9759 86.291 35.2897 86.5525C37.2032 86.0202 39.1363 85.5146 41.0466 84.9486C41.4997 84.8178 41.9217 84.5365 42.315 84.2522C42.7084 83.9679 43.0504 83.62 43.3924 83.2721C44.7227 81.9011 46.3189 80.8864 47.9284 79.8933C49.7147 78.7881 51.5801 77.8007 53.3931 76.7386C53.7968 76.5044 54.145 76.1616 54.5413 75.8487C54.1406 74.7158 53.4877 73.8604 52.8449 72.9305ZM55.0011 76.8232C54.2936 77.1467 53.5748 77.4088 52.9412 77.7938C50.9669 79.012 49.0203 80.2845 47.0726 81.5457C46.4411 81.9532 45.8179 82.3883 45.2326 82.8655C45.0375 83.0245 44.65 83.1892 44.868 83.6407C45.7806 83.5089 46.6862 83.4855 47.5532 83.1082C47.9897 82.9221 48.491 82.8211 48.9719 82.8069C51.8904 82.7075 54.8085 82.421 57.7303 82.8431C57.9893 82.8826 58.2688 82.9599 58.5166 82.575C57.8794 81.4007 57.2144 80.1721 56.5442 78.9496C56.2297 78.3762 55.905 77.8151 55.5589 77.2673C55.4838 77.1321 55.3128 77.0622 55.0011 76.8232ZM14.6652 15.7762C14.4648 13.6898 11.6168 7.18697 10.0876 5.33156C8.89873 5.90747 7.91935 6.78245 6.84481 7.67152C7.0861 8.00748 7.25251 8.27066 7.45673 8.51348C8.91917 10.2614 10.3755 12.0041 11.8379 13.752C12.2854 14.2909 12.7339 14.8411 13.213 15.3545C13.6039 15.7737 14.0914 15.9517 14.6652 15.7762ZM7.99623 29.5581C8.20963 29.352 8.35986 29.2593 8.4322 29.1225C8.6177 28.7998 8.78985 28.4557 8.93949 28.1135C9.98891 25.6783 11.1111 23.2934 12.7344 21.1704C13.1894 20.5744 13.5275 19.8809 13.8504 19.2058C13.9685 18.9515 13.8971 18.6118 13.9124 18.1681C13.5455 18.3707 13.2919 18.4498 13.1029 18.614C12.0908 19.5032 11.0418 20.3617 10.1046 21.3237C8.78962 22.6764 7.51876 24.0763 6.57294 25.7366C6.33445 26.1604 6.10828 26.5944 5.92817 27.0357C5.75316 27.4709 5.83088 27.878 6.24504 28.1817C6.80071 28.6033 7.34722 29.0483 7.99623 29.5581ZM20.5388 26.8548C20.438 26.6255 20.3688 26.3707 20.2342 26.1444C18.7505 23.6214 17.2617 21.1045 15.7668 18.5825C15.6044 18.302 15.4472 18.0153 15.2419 17.7612C15.1208 17.6188 14.9211 17.5457 14.6136 17.3517C14.5901 17.8302 14.5008 18.1501 14.5782 18.4325C15.1299 20.6352 15.6765 22.8441 16.2946 25.0297C16.6331 26.2248 17.1096 27.3793 17.5422 28.5491C17.6328 28.7906 17.7756 29.0446 18.1133 29.0147C18.868 28.3467 19.6166 27.6737 20.5388 26.8548ZM3.86368 20.3558C7.4029 19.6117 10.4546 17.8388 13.7959 16.9193C13.9401 16.8839 14.0636 16.7482 14.2241 16.6432C13.8576 16.1822 13.3367 16.1943 12.8864 16.1717C10.6049 16.0446 8.32154 15.9574 6.13967 16.8367C4.95876 17.3155 3.61011 17.3951 2.54788 18.2944C2.84961 19.0957 3.33909 19.6593 3.86368 20.3558ZM14.0506 2.01476C13.5162 2.79367 13.5557 3.52179 13.5348 4.20989C13.4762 5.83146 13.5199 7.45531 13.4265 9.06861C13.3625 10.1462 13.6717 11.0887 14.0996 12.0263C14.1778 12.1952 14.3643 12.3091 14.6157 12.5705C15.3296 10.1877 15.3036 7.84198 15.8224 5.61822C16.1791 5.42787 16.4867 5.25886 16.8107 5.08274C16.6351 3.92995 16.8013 2.79229 16.3443 1.66439C15.5453 1.79746 14.8005 1.90305 14.0506 2.01476ZM18.8516 12.6041C19.8947 12.2906 20.5393 11.7799 21.1747 11.2926C22.0431 10.626 22.9418 10.2856 23.9705 10.7901C24.9136 10.1338 25.8045 9.52755 26.6832 8.91102C26.7149 8.88553 26.7249 8.81091 26.7514 8.72917C26.3063 7.91215 25.8602 7.08388 25.4357 6.30474C24.6833 6.20683 24.156 6.51437 23.6696 6.8353C22.6018 7.55363 21.5813 8.35285 20.5074 9.06605C19.2883 9.86582 19.0384 11.0789 18.8516 12.6041ZM16.4637 6.34983C16.3666 6.82916 16.2641 7.18986 16.2189 7.55684C15.8869 10.0193 15.5611 12.4868 15.2466 14.9534C15.2284 15.0628 15.4047 15.189 15.5095 15.3385C16.1353 15.113 16.5733 14.6999 16.8535 14.176C17.1582 13.6103 17.3727 12.9901 17.5759 12.371C18.0616 10.8875 18.5289 9.38854 18.9849 7.89062C19.0763 7.59329 19.1093 7.27844 19.1872 6.89723C18.3026 6.72027 17.5163 6.56297 16.4637 6.34983ZM16.3016 17.9907C16.6466 18.8904 17.2596 19.3182 17.8624 19.7583C19.2576 20.7862 20.6376 21.8324 22.042 22.8368C22.6437 23.2657 23.1935 23.8068 24.0096 23.9785C24.4916 23.1249 24.9482 22.3018 25.2553 21.4579C24.1378 21.035 23.1115 20.6778 22.125 20.2603C21.0268 19.8016 19.9572 19.2837 18.8733 18.7955C18.0855 18.4398 17.2927 18.1526 16.3016 17.9907ZM3.74404 13.8442C4.09744 13.9831 4.24705 14.0663 4.40267 14.0922C5.84119 14.3676 7.2686 14.7064 8.58629 15.3895C8.77687 15.4861 8.99506 15.5745 9.20485 15.573C10.2252 15.5621 11.2486 15.585 12.2931 15.4075C12.2124 14.6036 11.5413 14.283 11.2238 13.7383C10.9269 13.2314 10.4495 13.0411 9.89758 12.9028C8.0851 12.4506 6.25806 12.3287 4.41357 12.628C4.31332 12.6482 4.22238 12.7073 4.03119 12.7866C3.95614 13.0768 3.85767 13.4201 3.74404 13.8442ZM14.004 20.5477C13.1712 21.1091 12.9408 21.9235 12.4961 22.5697C12.2371 22.9556 12.0847 23.4511 12.0029 23.9121C11.6737 25.7958 11.7999 27.6959 11.8013 29.5958C11.8038 29.8054 11.8586 30.0274 11.9287 30.2311C12.0328 30.5565 12.2321 30.8678 12.5892 30.8645C12.975 30.8644 13.3553 30.6833 13.4946 30.291C13.6034 29.9978 13.6569 29.6585 13.65 29.3415C13.6333 28.3107 13.6053 27.281 13.5261 26.2501C13.4408 25.2141 13.4988 24.1938 13.7041 23.1718C13.8316 22.531 13.9365 21.8921 14.0353 21.2482C14.0635 21.0642 14.0283 20.8688 14.004 20.5477ZM16.7528 16.6237C17.2231 16.86 17.3964 17.0148 17.5848 17.0265C18.332 17.0682 19.0914 17.1201 19.8353 17.0656C21.2392 16.9698 22.6308 16.8637 24.0243 17.1431C24.2843 17.1938 24.5843 17.2467 24.8154 17.1695C25.0026 17.1076 25.1135 16.8369 25.3329 16.5736C24.8924 16.414 24.6025 16.2866 24.3005 16.2112C23.2017 15.9284 22.0826 15.7325 21.0113 15.3792C20.0568 15.061 19.2169 15.1807 18.3808 15.646C17.9178 15.9138 17.4733 16.197 16.7528 16.6237ZM22.7418 11.8516C22.4196 11.9255 22.1177 11.9125 21.9154 12.0551C20.392 13.12 18.6017 13.8172 17.2064 15.4039C17.8711 15.1693 18.3722 15.0059 18.8711 14.8199C20.1809 14.3241 21.4836 13.8118 22.7862 13.2996C22.917 13.2426 23.0036 13.0762 23.1578 12.9037C23.0352 12.5629 22.8962 12.2293 22.7418 11.8516Z" fill="white"/>
</svg>
