<svg width="40" height="38" viewBox="0 0 40 38" fill="none" xmlns="http://www.w3.org/2000/svg">
<path d="M36.8916 5.44536C32.4416 7.04536 28.1416 8.96536 23.8916 10.9854C20.5816 7.51536 17.2916 4.01536 13.9816 0.535361C12.7816 -0.734639 10.9716 0.455361 11.1516 2.01536C11.7116 6.81536 12.1216 11.6554 12.7716 16.4354C8.90162 18.3354 5.00162 20.1954 1.01162 21.8554C-0.768376 22.5954 -0.008376 25.4054 1.81162 25.4454C5.99162 25.5254 10.1716 25.3554 14.3416 25.2454C14.9316 27.8054 15.6816 30.3254 16.6216 32.8154C16.5116 33.0154 16.4216 33.2454 16.4016 33.5354C16.3616 34.1154 16.3216 34.6954 16.2916 35.2754C16.2316 36.3354 17.0916 37.1954 18.1116 37.2754C18.3516 37.2954 18.5916 37.3154 18.8216 37.3254C19.7516 37.3954 20.3816 36.7654 20.7316 35.9854C22.4416 32.1754 24.7516 28.7754 27.2216 25.4754C29.5916 25.6854 31.9616 25.9954 34.3216 26.5154C36.0016 26.8854 37.7016 24.8554 36.2416 23.4554C34.8016 22.0754 33.3916 20.6654 31.9816 19.2554C34.5916 15.8054 37.0716 12.2754 38.9116 8.30536C39.4916 7.05536 38.6516 4.80536 36.8916 5.44536ZM14.7616 6.34536C16.6616 8.45536 18.5816 10.5454 20.5216 12.6154C18.8416 13.4354 17.1716 14.2654 15.5016 15.0954C15.2016 12.1954 14.9716 9.27536 14.7616 6.34536ZM25.3516 21.5754C22.3516 21.4054 19.3316 21.3854 16.3216 21.4354C16.2016 20.6454 16.0816 19.8654 15.9716 19.0754C18.3816 17.8754 20.7916 16.6654 23.2116 15.4854C24.4716 16.8154 25.7516 18.1454 27.0316 19.4654C26.4716 20.1654 25.9116 20.8754 25.3516 21.5754ZM10.8916 21.5654C11.7216 21.1654 12.5416 20.7654 13.3716 20.3554C13.4316 20.7354 13.5016 21.1154 13.5716 21.4954C12.6816 21.5154 11.7816 21.5354 10.8916 21.5654ZM19.4716 29.9854C19.1616 30.4954 18.9116 31.0354 18.6416 31.5654C17.9816 29.4554 17.4416 27.3354 17.0016 25.1954C18.8816 25.1654 20.7616 25.1654 22.6316 25.2154C21.5316 26.7654 20.4716 28.3454 19.4716 29.9854ZM26.6416 13.8354C28.7916 12.8254 30.9616 11.8354 33.1616 10.9254C31.9616 12.8654 30.6516 14.7254 29.2716 16.5554C28.3916 15.6554 27.5116 14.7454 26.6416 13.8354Z" fill="white"/>
</svg>
